<svg width="3568" height="545" xmlns="http://www.w3.org/2000/svg" xmlns:xlink="http://www.w3.org/1999/xlink" xml:space="preserve" overflow="hidden"><g transform="translate(-325 -848)"><path d="M325.864 848.774 869.865 848.774C869.865 1030.1 869.865 1211.42 869.832 1392.74 688.509 1392.77 507.187 1392.74 325.864 1392.77L325.864 848.774M398.321 950.891C440.655 1007.58 483.616 1063.77 526.149 1120.3 483.978 1177.05 440.755 1233.01 398.518 1289.73 495.072 1290.13 591.593 1289.73 688.147 1289.93 731.602 1233.71 773.476 1176.26 817.226 1120.23L816.403 1120.26C773.772 1063.74 730.943 1007.35 688.377 950.826 591.692 950.891 495.006 950.726 398.321 950.891Z" fill="#FFFFFF" fill-rule="evenodd"/><path d="M1054.93 1007.4C1087.22 967.097 1136.86 941.213 1188.45 938.29 1237.3 934.512 1287.01 951.691 1323.74 984.046 1307.16 1000.77 1290.56 1017.39 1273.86 1033.97 1245.61 1011.05 1206.36 1002.01 1171.19 1012.06 1131.95 1022.38 1100.45 1055.95 1091.69 1095.5 1080.98 1138.43 1096.44 1187.21 1131.72 1214.41 1172.01 1247.42 1234.51 1245.75 1274.13 1212.4 1290.73 1229.06 1307.69 1245.41 1323.87 1262.53 1291.09 1291.04 1248.46 1308.18 1204.95 1308.71 1150.13 1310.22 1095.19 1286.08 1059.39 1244.46 1034.36 1215.92 1018.41 1179.46 1014.83 1141.61 1009.81 1093.92 1024.48 1044.48 1054.93 1007.4Z" fill="#FFFFFF" fill-rule="evenodd"/><path d="M1390.86 948.807C1414.86 948.807 1438.83 948.84 1462.83 948.775 1462.89 1065.45 1462.83 1182.09 1462.86 1298.77 1438.86 1298.77 1414.86 1298.8 1390.86 1298.74 1390.89 1182.09 1390.86 1065.45 1390.86 948.807Z" fill="#FFFFFF" fill-rule="evenodd"/><path d="M1547.87 947.873C1571.08 947.807 1594.29 948.004 1617.53 947.774 1658.9 1021.92 1699.23 1096.71 1741.14 1170.59 1781.76 1096.22 1822.97 1022.21 1863.6 947.84 1887.01 947.906 1910.41 947.84 1933.85 947.873 1933.72 1064.61 1934.07 1181.32 1933.65 1298.05 1909.82 1297.69 1886.02 1298.12 1862.18 1297.82 1862.35 1228.73 1862.18 1159.67 1862.28 1090.61 1821.24 1160.43 1782.13 1231.42 1740.35 1300.77 1700.45 1230.5 1659.46 1160.85 1619.41 1090.68 1619.54 1159.77 1619.44 1228.83 1619.48 1297.92 1595.61 1297.92 1571.77 1297.89 1547.91 1297.95 1547.81 1181.25 1547.91 1064.58 1547.87 947.873Z" fill="#FFFFFF" fill-rule="evenodd"/><path d="M2014.91 948.775C2063.27 948.84 2111.62 948.775 2159.99 948.807 2182.36 949.234 2205.32 953.921 2224.44 966.017 2270.6 994.076 2281.21 1066.95 2242.66 1105.56 2237.72 1110.81 2231.85 1115.13 2226.01 1119.33 2248 1130.83 2264.86 1152.17 2268.95 1176.76 2274.91 1209.93 2267.3 1248.02 2241.43 1271.43 2220.81 1291.07 2191.49 1298.15 2163.67 1298.5 2114.09 1299.03 2064.46 1298.6 2014.87 1298.73 2014.91 1182.07 2014.81 1065.44 2014.91 948.775M2086.54 1012.73C2086.5 1038.13 2086.54 1063.54 2086.54 1088.94 2107.63 1088.87 2128.75 1089.04 2149.87 1088.91 2162.16 1088.68 2175.44 1086.12 2184.43 1077.11 2197.21 1063.6 2197.55 1040.82 2186.18 1026.33 2177.45 1015.87 2163.02 1012.63 2149.94 1012.69 2128.78 1012.73 2107.66 1012.73 2086.54 1012.73M2086.54 1152.89C2086.54 1179.91 2086.5 1206.95 2086.54 1233.99 2109.83 1234.02 2133.13 1233.96 2156.42 1234.06 2167.33 1234.38 2178.79 1231.34 2186.97 1223.83 2203.25 1208.23 2203.55 1179.15 2186.93 1163.68 2177.98 1155.22 2165.13 1153.03 2153.23 1152.86 2130.99 1152.83 2108.75 1152.86 2086.54 1152.89Z" fill="#FFFFFF" fill-rule="evenodd"/><path d="M2418.06 947.888C2430.03 948.019 2442 947.46 2453.98 948.052 2459.45 952.29 2462.52 958.926 2466.9 964.247 2532.59 1053.63 2597.75 1143.41 2663.8 1232.54 2663.74 1137.63 2663.8 1042.76 2663.77 947.855 2676.13 947.855 2688.5 947.855 2700.86 947.855 2700.86 1064.47 2700.86 1181.09 2700.86 1297.7 2688.37 1297.7 2675.87 1297.67 2663.41 1297.77 2594.02 1202.71 2524.68 1107.61 2455.19 1012.6 2455.19 1107.64 2455.19 1202.67 2455.19 1297.67 2442.73 1297.65 2430.26 1297.94 2417.86 1297.42 2418.42 1180.93 2417.96 1064.41 2418.06 947.888Z" fill="#FFFFFF" fill-rule="evenodd"/><path d="M2791.87 947.774C2804.54 947.774 2817.16 947.774 2829.86 947.774 2829.86 1064.44 2829.83 1181.08 2829.86 1297.71 2817.2 1297.8 2804.54 1297.74 2791.91 1297.77 2791.81 1181.11 2791.91 1064.44 2791.87 947.774Z" fill="#FFFFFF" fill-rule="evenodd"/><path d="M2886.86 1299.65C2929.56 1183.31 2972.3 1066.98 3015.3 950.775 3032.41 950.939 3049.51 950.807 3066.62 950.84 3107.34 1066.32 3148.01 1181.87 3188.86 1297.29 3174.31 1297.25 3159.76 1297.32 3145.24 1297.25 3134.42 1266.36 3123.41 1235.5 3112.26 1204.7 3063.89 1204.74 3015.56 1204.74 2967.23 1204.74 2956.43 1236.35 2946.06 1268.16 2935.22 1299.77 2919.1 1299.65 2902.96 1299.84 2886.86 1299.65M2982.04 1162.9C3020.53 1163.06 3059.05 1162.93 3097.54 1162.97 3078.24 1107.01 3059.21 1050.96 3040.25 994.904 3020.93 1050.92 3001.21 1106.81 2982.04 1162.9Z" fill="#FFFFFF" fill-rule="evenodd"/><path d="M3270.55 1007.21C3299.76 977.133 3338.85 955.513 3381 951.63 3432.95 946.399 3484.66 965.681 3526.67 995.264 3518.49 1005.89 3509.87 1016.16 3501.74 1026.82 3487.76 1006.91 3462.98 999.476 3440.64 993.454 3401.79 982.76 3357.71 988.552 3324.9 1012.67 3295.26 1035.05 3275.45 1069.04 3267.59 1105.07 3263.14 1142.32 3266.83 1182.99 3288.94 1214.52 3296.54 1226.43 3308.65 1234.1 3319.01 1243.34 3340.99 1261.28 3369.81 1269.4 3397.9 1269.14 3432.48 1269.47 3466.7 1260.62 3498.32 1247.03 3498.29 1211.03 3498.39 1175.03 3498.29 1139.03 3470.88 1139.06 3443.48 1139.06 3416.06 1139.03 3416.06 1128.11 3416.06 1117.18 3416.04 1106.26 3454.96 1106.03 3493.88 1106.26 3532.83 1106.13 3532.89 1161.8 3532.83 1217.45 3532.86 1273.12 3495.72 1293.86 3453.14 1302.55 3411.23 1306.72 3366.85 1307.65 3320.5 1296.26 3285.95 1267.26 3252.19 1239.53 3232.48 1197.31 3226.69 1154.53 3222.26 1102.47 3235.47 1047.03 3270.55 1007.21Z" fill="#FFFFFF" fill-rule="evenodd"/><path d="M3592.86 1299.27C3635.78 1182.89 3678.5 1066.45 3721.1 949.938 3738.22 949.84 3755.35 950.037 3772.51 949.775 3811.87 1060.3 3850.35 1171.16 3889.57 1281.76 3891.42 1286.72 3892.44 1291.91 3892.86 1297.23 3879.06 1297.3 3865.33 1297.23 3851.59 1297.3 3840.43 1266.42 3829.56 1235.41 3818.55 1204.5 3770 1204.44 3721.46 1204.4 3672.94 1204.54 3662.53 1236.3 3651.73 1267.93 3641.25 1299.66 3625.11 1299.56 3608.97 1300.18 3592.86 1299.27M3746.15 994.315C3727.06 1050.52 3707.12 1106.42 3688.19 1162.69 3726.56 1162.49 3764.97 1162.62 3803.34 1162.62 3784.66 1106.39 3765.3 1050.39 3746.15 994.315Z" fill="#FFFFFF" fill-rule="evenodd"/><path d="M398.864 950.85C495.531 950.686 592.198 950.85 688.865 950.785 731.422 1007.12 774.242 1063.32 816.865 1119.66 720.133 1119.86 623.4 1119.76 526.667 1119.69 484.142 1063.36 441.191 1007.35 398.864 950.85Z" fill="#FF0000" fill-rule="evenodd"/><path d="M526.279 1119.84C622.867 1119.91 719.455 1120 816.044 1119.81L816.865 1119.77C773.189 1175.9 731.385 1233.45 688.004 1289.77 591.613 1289.58 495.255 1289.97 398.864 1289.58 441.029 1232.76 484.18 1176.69 526.279 1119.84Z" fill="#790008" fill-rule="evenodd"/></g></svg>