<svg width="546" height="546" xmlns="http://www.w3.org/2000/svg" xmlns:xlink="http://www.w3.org/1999/xlink" xml:space="preserve" overflow="hidden"><defs><clipPath id="clip0"><rect x="266" y="641" width="546" height="546"/></clipPath></defs><g clip-path="url(#clip0)" transform="translate(-266 -641)"><path d="M266 641 812 641C812 822.989 812 1004.98 811.967 1186.97 629.978 1187 447.989 1186.97 266 1187L266 641M338.723 743.493C381.213 800.389 424.332 856.79 467.02 913.521 424.695 970.483 381.313 1026.65 338.921 1083.58 435.83 1083.98 532.706 1083.58 629.615 1083.78 673.229 1027.35 715.257 969.69 759.168 913.455L758.342 913.488C715.554 856.757 672.568 800.158 629.846 743.427 532.805 743.493 435.764 743.328 338.723 743.493Z" fill="#790008" fill-rule="evenodd"/><path d="M339 744.076C436.129 743.911 533.258 744.076 630.388 744.01 673.148 800.678 716.173 857.215 759 913.884 661.805 914.082 564.61 913.982 467.414 913.916 424.686 857.248 381.529 800.909 339 744.076Z" fill="#FFFFFF" fill-rule="evenodd"/><path d="M467.024 914.066C564.074 914.132 661.124 914.231 758.175 914.033L759 914C715.115 970.128 673.111 1027.67 629.523 1084 532.671 1083.8 435.852 1084.2 339 1083.8 381.366 1026.98 424.724 970.92 467.024 914.066Z" fill="#ED3024" fill-rule="evenodd"/></g></svg>