<svg width="3581" height="546" xmlns="http://www.w3.org/2000/svg" xmlns:xlink="http://www.w3.org/1999/xlink" xml:space="preserve" overflow="hidden"><defs><clipPath id="clip0"><rect x="376" y="626" width="3581" height="546"/></clipPath></defs><g clip-path="url(#clip0)" transform="translate(-376 -626)"><path d="M376 626 922 626C922 807.989 922 989.978 921.967 1171.97 739.978 1172 557.989 1171.97 376 1172L376 626M448.723 728.493C491.213 785.389 534.332 841.79 577.021 898.521 534.695 955.483 491.313 1011.65 448.921 1068.58 545.83 1068.98 642.706 1068.58 739.615 1068.78 783.229 1012.35 825.257 954.69 869.168 898.455L868.342 898.488C825.554 841.757 782.568 785.158 739.846 728.427 642.805 728.493 545.764 728.327 448.723 728.493Z" fill="#790008" fill-rule="evenodd"/><path d="M1107.33 785.001C1139.83 744.48 1189.79 718.457 1241.71 715.518 1290.88 711.72 1340.91 728.992 1377.87 761.521 1361.19 778.33 1344.48 795.04 1327.67 811.718 1299.24 788.667 1259.74 779.585 1224.34 789.69 1184.84 800.06 1153.14 833.811 1144.32 873.572 1133.55 916.735 1149.11 965.776 1184.61 993.12 1225.16 1026.31 1288.07 1024.63 1327.94 991.105 1344.65 1007.85 1361.72 1024.29 1378 1041.5 1345.01 1070.17 1302.11 1087.4 1258.32 1087.93 1203.14 1089.45 1147.85 1065.18 1111.82 1023.34 1086.62 994.639 1070.57 957.982 1066.97 919.938 1061.92 871.987 1076.68 822.285 1107.33 785.001Z" fill="#790008" fill-rule="evenodd"/><path d="M1445 726.033C1469 726.033 1492.97 726.066 1516.97 726 1517.03 843.342 1516.97 960.65 1517 1077.99 1493 1077.99 1469 1078.02 1445 1077.96 1445.03 960.65 1445 843.342 1445 726.033Z" fill="#790008" fill-rule="evenodd"/><path d="M1603.01 725.099C1626.28 725.033 1649.55 725.231 1672.85 725 1714.33 799.561 1754.76 874.782 1796.78 949.081 1837.5 874.288 1878.82 799.858 1919.55 725.066 1943.02 725.132 1966.48 725.066 1989.98 725.099 1989.85 842.498 1990.21 959.864 1989.78 1077.26 1965.89 1076.9 1942.03 1077.33 1918.13 1077.03 1918.3 1007.55 1918.13 938.099 1918.23 868.649 1877.08 938.857 1837.87 1010.25 1795.99 1080 1755.98 1009.33 1714.89 939.286 1674.73 868.715 1674.86 938.198 1674.76 1007.65 1674.8 1077.13 1650.87 1077.13 1626.97 1077.1 1603.05 1077.16 1602.95 959.798 1603.05 842.465 1603.01 725.099Z" fill="#790008" fill-rule="evenodd"/><path d="M2072.05 726C2120.6 726.066 2169.13 726 2217.69 726.033 2240.15 726.462 2263.2 731.176 2282.39 743.341 2328.73 771.561 2339.38 844.847 2300.68 883.683 2295.72 888.958 2289.83 893.31 2283.97 897.529 2306.04 909.101 2322.97 930.562 2327.07 955.288 2333.06 988.651 2325.42 1026.96 2299.45 1050.5 2278.75 1070.25 2249.31 1077.37 2221.39 1077.73 2171.61 1078.26 2121.79 1077.83 2072.01 1077.96 2072.05 960.629 2071.95 843.331 2072.05 726M2143.96 790.319C2143.92 815.869 2143.96 841.419 2143.96 866.968 2165.13 866.902 2186.33 867.068 2207.53 866.936 2219.87 866.705 2233.2 864.133 2242.23 855.067 2255.06 841.485 2255.4 818.572 2243.98 804.001 2235.22 793.484 2220.73 790.22 2207.6 790.286 2186.36 790.319 2165.16 790.319 2143.96 790.319M2143.96 931.288C2143.96 958.453 2143.92 985.651 2143.96 1012.85 2167.34 1012.88 2190.73 1012.82 2214.11 1012.92 2225.06 1013.24 2236.57 1010.18 2244.78 1002.63 2261.12 986.937 2261.42 957.694 2244.74 942.134 2235.75 933.629 2222.85 931.42 2210.91 931.255 2188.58 931.222 2166.25 931.255 2143.96 931.288Z" fill="#790008" fill-rule="evenodd"/><path d="M2476.2 725.114C2488.21 725.246 2500.22 724.684 2512.24 725.279 2517.73 729.541 2520.81 736.215 2525.21 741.567 2591.13 831.463 2656.52 921.755 2722.8 1011.39 2722.74 915.94 2722.8 820.527 2722.77 725.081 2735.18 725.081 2747.59 725.081 2760 725.081 2760 842.365 2760 959.65 2760 1076.93 2747.46 1076.93 2734.92 1076.9 2722.41 1077 2652.78 981.389 2583.19 885.744 2513.46 790.198 2513.46 885.777 2513.46 981.356 2513.46 1076.9 2500.95 1076.87 2488.44 1077.17 2476 1076.64 2476.56 959.484 2476.1 842.299 2476.2 725.114Z" fill="#790008" fill-rule="evenodd"/><path d="M2852.01 725C2864.68 725 2877.3 725 2890 725 2890 842.333 2889.97 959.634 2890 1076.93 2877.34 1077.03 2864.68 1076.97 2852.05 1077 2851.95 959.667 2852.05 842.333 2852.01 725Z" fill="#790008" fill-rule="evenodd"/><path d="M2947 1078.87C2989.84 961.868 3032.72 844.868 3075.86 728 3093.03 728.165 3110.18 728.033 3127.35 728.066 3168.21 844.209 3209.01 960.419 3250 1076.5 3235.4 1076.46 3220.8 1076.53 3206.23 1076.46 3195.37 1045.39 3184.33 1014.36 3173.14 983.384 3124.61 983.417 3076.12 983.417 3027.63 983.417 3016.8 1015.21 3006.39 1047.2 2995.52 1079 2979.34 1078.87 2963.15 1079.07 2947 1078.87M3042.49 941.341C3081.11 941.506 3119.76 941.374 3158.37 941.407 3139.01 885.131 3119.92 828.757 3100.89 772.382 3081.51 828.724 3061.72 884.934 3042.49 941.341Z" fill="#790008" fill-rule="evenodd"/><path d="M3332.83 784.752C3362.14 754.506 3401.35 732.765 3443.64 728.86 3495.76 723.599 3547.64 742.99 3589.79 772.74 3581.58 783.428 3572.93 793.752 3564.77 804.474 3550.75 784.454 3525.89 776.975 3503.48 770.919 3464.5 760.165 3420.27 765.989 3387.36 790.245 3357.62 812.747 3337.75 846.93 3329.86 883.165 3325.4 920.625 3329.1 961.525 3351.28 993.227 3358.91 1005.21 3371.05 1012.92 3381.45 1022.21 3403.5 1040.25 3432.41 1048.42 3460.6 1048.16 3495.29 1048.49 3529.62 1039.59 3561.34 1025.92 3561.31 989.719 3561.41 953.517 3561.31 917.315 3533.81 917.348 3506.32 917.348 3478.82 917.315 3478.82 906.329 3478.82 895.343 3478.79 884.356 3517.84 884.125 3556.89 884.356 3595.97 884.224 3596.03 940.214 3595.97 996.172 3596 1052.16 3558.73 1073.01 3516.02 1081.75 3473.97 1085.95 3429.44 1086.88 3382.94 1075.43 3348.28 1046.27 3314.41 1018.38 3294.64 975.92 3288.83 932.901 3284.38 880.551 3297.64 824.792 3332.83 784.752Z" fill="#790008" fill-rule="evenodd"/><path d="M3656 1078.49C3699.06 961.446 3741.92 844.338 3784.66 727.165 3801.84 727.066 3819.03 727.264 3836.24 727 3875.74 838.161 3914.34 949.652 3953.7 1060.88 3955.55 1065.87 3956.57 1071.09 3957 1076.44 3943.15 1076.51 3929.37 1076.44 3915.59 1076.51 3904.39 1045.45 3893.48 1014.27 3882.44 983.183 3833.73 983.116 3785.02 983.083 3736.34 983.215 3725.9 1015.16 3715.06 1046.97 3704.55 1078.88 3688.35 1078.78 3672.16 1079.41 3656 1078.49M3809.8 771.795C3790.64 828.317 3770.64 884.541 3751.64 941.13 3790.14 940.931 3828.68 941.064 3867.18 941.064 3848.44 884.509 3829.01 828.185 3809.8 771.795Z" fill="#790008" fill-rule="evenodd"/><path d="M449 728.076C546.129 727.911 643.258 728.076 740.388 728.01 783.148 784.678 826.173 841.215 869 897.883 771.805 898.081 674.61 897.982 577.414 897.916 534.686 841.248 491.529 784.91 449 728.076Z" fill="#FFFFFF" fill-rule="evenodd"/><path d="M577.024 898.066C674.074 898.133 771.124 898.232 868.175 898.033L869 898C825.115 954.458 783.111 1012.34 739.523 1069 642.671 1068.8 545.852 1069.2 449 1068.8 491.366 1011.65 534.724 955.254 577.024 898.066Z" fill="#ED3024" fill-rule="evenodd"/></g></svg>