<svg width="954" height="955" xmlns="http://www.w3.org/2000/svg" xmlns:xlink="http://www.w3.org/1999/xlink" xml:space="preserve" overflow="hidden"><defs><clipPath id="clip0"><rect x="1723" y="760" width="954" height="955"/></clipPath></defs><g clip-path="url(#clip0)" transform="translate(-1723 -760)"><path d="M2200 1715C1936.98 1715 1723 1500.79 1723 1237.5 1723 974.205 1936.98 760 2200 760 2224.71 760 2244.74 780.05 2244.74 804.782 2244.74 829.515 2224.71 849.565 2200 849.565 1986.32 849.565 1812.47 1023.59 1812.47 1237.5 1812.47 1451.41 1986.32 1625.43 2200 1625.43 2413.68 1625.43 2587.53 1451.41 2587.53 1237.5 2587.53 1212.76 2607.56 1192.71 2632.26 1192.71 2656.97 1192.71 2677 1212.76 2677 1237.5 2677 1500.79 2463.02 1715 2200 1715Z" fill="#10B981" fill-rule="evenodd"/><path d="M2652.94 886.035C2495.64 1032.97 2372.81 1213.62 2295.7 1410.75 2284.04 1440.55 2258.71 1463.03 2227.65 1470.71 2227.24 1470.81 2226.84 1470.91 2226.44 1471.01 2184.55 1481.47 2140.65 1463.92 2117.87 1427.24 2051.56 1320.46 1978.98 1236.55 1938.91 1193.71 1922.41 1176.07 1921.95 1151.74 1944.54 1136.83 1994.85 1103.63 2058.55 1118.69 2105.53 1169.03 2129.68 1194.91 2161.07 1229.6 2184.01 1256.56 2284.04 1118.64 2414.53 972.988 2545.81 861.887 2573.58 838.383 2610.81 832.286 2643.57 843.323 2661.84 849.481 2667.04 872.875 2652.94 886.035Z" fill="#10B981" fill-rule="evenodd"/></g></svg>