<?xml version="1.0" encoding="UTF-8"?>
<svg version="1.1" xmlns="http://www.w3.org/2000/svg" width="512" height="512">
<path d="M0 0 C168.96 0 337.92 0 512 0 C512 168.96 512 337.92 512 512 C343.04 512 174.08 512 0 512 C0 343.04 0 174.08 0 0 Z " fill="#ED3C40" transform="translate(0,0)"/>
<path d="M0 0 C168.96 0 337.92 0 512 0 C512 168.96 512 337.92 512 512 C487.58 512 463.16 512 438 512 C438.61755763 506.44198135 439.25397859 501.40018915 440.375 496 C442.39049488 485.75030377 443.519417 475.39182666 444.65917969 465.01464844 C444.95671889 462.38283318 445.28716678 459.75862266 445.6328125 457.1328125 C448.75817333 431.78001266 448.65325923 404.27707455 445 379 C444.81695312 377.72253906 444.63390625 376.44507813 444.4453125 375.12890625 C442.46682438 363.78313176 438.64050042 352.90058743 435 342 C435.82242187 341.70867187 436.64484375 341.41734375 437.4921875 341.1171875 C456.30002769 334.21084434 469.98772025 323.24135677 478.5625 304.9375 C482.99686393 294.77489257 484.06759347 283.13522473 480 272.625 C472.71123686 257.66278899 460.20154904 248.78802398 444.890625 243.27734375 C432.06825613 238.94379795 418.49930957 235.62729275 404.91796875 236.22265625 C388.47159203 236.74158057 388.47159203 236.74158057 384.10546875 233.66503906 C380.91607564 230.02753201 379.10032517 225.70150125 377.15478516 221.31542969 C375.10658985 217.20864654 372.27257654 213.71370957 369.4375 210.125 C368.88271973 209.40965088 368.32793945 208.69430176 367.75634766 207.95727539 C364.01297951 203.16876775 360.10771336 198.56721381 355.96484375 194.1171875 C354.13692837 192.14754508 352.41220825 190.12222352 350.6875 188.0625 C332.34984898 167.17097521 307.6198793 152.19363864 282 142 C281.07670898 141.61835693 281.07670898 141.61835693 280.13476562 141.22900391 C223.18199516 117.7069741 156.61141263 119.60975218 99.8125 142.375 C92.39510287 145.61430834 85.16913673 149.24805548 78 153 C77.3395166 153.34546875 76.6790332 153.6909375 75.99853516 154.046875 C57.85707375 163.64354247 41.68023294 175.86603147 26.54296875 189.6796875 C24.76533432 191.30167652 22.97518179 192.91000455 21.17578125 194.5078125 C14.4326278 200.52421408 8.34047798 206.6064673 3.125 214 C2.42375 214.99 1.7225 215.98 1 217 C0.67 217 0.34 217 0 217 C0 145.39 0 73.78 0 0 Z " fill="#C70007" transform="translate(0,0)"/>
<path d="M0 0 C0.9576123 0.15597656 1.91522461 0.31195313 2.90185547 0.47265625 C46.32432952 7.72652663 85.17877169 24.1507214 117 55 C117.55929199 55.53351074 118.11858398 56.06702148 118.69482422 56.61669922 C129.90451335 67.33161586 139.21424234 78.85305204 148.0625 91.5625 C148.52809326 92.22942871 148.99368652 92.89635742 149.47338867 93.58349609 C151.7751989 96.95331543 153.67602121 100.1028647 155 104 C152.21988957 104.92670348 150.00687928 105.27096141 147.109375 105.54296875 C134.57516957 106.80483525 122.23312061 108.52369142 109.875 110.9375 C108.63331055 111.17815186 107.39162109 111.41880371 106.11230469 111.66674805 C101.08103331 112.67173483 96.07297081 113.67683632 91.13012695 115.05834961 C81.12391486 117.8361531 71.79991914 118.62498678 61.4375 118.6875 C58.47775701 118.72668688 55.51818705 118.77510878 52.55859375 118.82421875 C51.83610443 118.83531677 51.11361511 118.84641479 50.36923218 118.85784912 C38.47374257 119.06498409 26.76546657 120.12821611 15 121.875 C13.77812988 122.05426025 12.55625977 122.23352051 11.29736328 122.41821289 C-2.68739759 124.50428082 -16.19556957 127.41731804 -29.77099609 131.35595703 C-31.88212084 131.96594028 -33.99688002 132.56097388 -36.11328125 133.15234375 C-62.85644771 140.70592908 -88.35454419 151.23328259 -113.375 163.25 C-114.55658691 163.81605957 -115.73817383 164.38211914 -116.95556641 164.96533203 C-123.59648135 168.19678561 -130.02615301 171.6539886 -136.36572266 175.44360352 C-138.87831777 176.92810711 -141.42086822 178.32263495 -144 179.6875 C-150.53397658 183.20431681 -156.85097916 187.08597318 -163.18359375 190.94995117 C-164.02019531 191.4576001 -164.85679687 191.96524902 -165.71875 192.48828125 C-166.47091797 192.94759033 -167.22308594 193.40689941 -167.99804688 193.88012695 C-170 195 -170 195 -173 196 C-210.00055983 107.11338458 -210.00055983 107.11338458 -194.75 67.6875 C-182.35680264 40.27115351 -144.0149509 23.10353335 -117.46484375 12.8046875 C-80.54655088 -0.91093795 -39.04516682 -6.50884432 0 0 Z " fill="#FDFDFD" transform="translate(225,131)"/>
<path d="M0 0 C15.77194501 14.14548762 28.9504884 29.98250847 40.75878906 47.55566406 C41.37355103 48.46674927 41.37355103 48.46674927 42.00073242 49.39624023 C44.11619712 52.60710871 45.70226273 55.72332149 47.07128906 59.30566406 C47.72387695 59.28995361 48.37646484 59.27424316 49.04882812 59.25805664 C78.05980392 58.65598998 109.72030346 61.17298063 132.03613281 82.07128906 C135.70621239 86.10062787 138.46423831 90.53666879 141.07128906 95.30566406 C141.43351562 95.93859375 141.79574219 96.57152344 142.16894531 97.22363281 C145.9899148 105.27432666 145.24069364 116.9611393 142.44628906 125.18066406 C133.93527216 145.04958854 119.88757533 158.05014967 100.14941406 166.09082031 C99.13363281 166.49171875 98.11785156 166.89261719 97.07128906 167.30566406 C97.38582031 168.13066406 97.70035156 168.95566406 98.02441406 169.80566406 C103.16883877 183.68941268 106.65954367 197.52187982 108.07128906 212.30566406 C108.15886475 213.18496582 108.24644043 214.06426758 108.33666992 214.97021484 C109.22195594 224.91290083 109.27130252 234.83197852 109.25878906 244.80566406 C109.25818481 245.69705078 109.25758057 246.5884375 109.25695801 247.50683594 C109.2347685 259.56926854 109.02459862 271.47887352 107.43945312 283.45263672 C107.07333264 286.28982771 106.74404773 289.13008445 106.42242432 291.97262573 C104.72791448 306.91883913 102.87918508 321.7222325 99.07128906 336.30566406 C98.08128906 336.30566406 97.09128906 336.30566406 96.07128906 336.30566406 C96.61555236 329.49254857 97.6180741 322.81740671 98.78540039 316.08520508 C105.21216512 278.72355137 109.85379688 237.77810344 102.07128906 200.30566406 C101.88904785 199.40879883 101.70680664 198.51193359 101.51904297 197.58789062 C99.46596212 187.73241647 96.98568494 178.33749991 93.12988281 169.02832031 C91.89322442 165.84768969 91.18358221 162.7252631 90.54003906 159.38378906 C89.74968987 155.87990764 88.40345367 152.63607558 87.07128906 149.30566406 C86.41128906 150.62566406 85.75128906 151.94566406 85.07128906 153.30566406 C84.53761719 152.24089844 84.00394531 151.17613281 83.45410156 150.07910156 C70.62068411 124.90238125 52.57700969 102.69735909 25.38378906 92.30566406 C15.40023233 89.50584741 7.05415577 91.44974266 -1.92871094 96.30566406 C-8.46373889 100.40316154 -14.00496476 105.02736447 -19.07714844 110.83691406 C-20.92871094 112.30566406 -20.92871094 112.30566406 -23.53808594 112.59082031 C-25.92871094 112.30566406 -25.92871094 112.30566406 -27.80371094 111.24316406 C-29.22441413 108.79639746 -29.10465644 107.05489328 -28.55371094 104.31738281 C-25.96793604 95.99441986 -20.17949152 89.20527719 -13.92871094 83.30566406 C-12.93871094 82.97566406 -11.94871094 82.64566406 -10.92871094 82.30566406 C-10.92871094 81.64566406 -10.92871094 80.98566406 -10.92871094 80.30566406 C-30.19806502 79.99693643 -46.61063537 81.21261298 -64.94824219 87.35644531 C-69.63995627 88.91980533 -74.36601836 90.31747596 -79.11621094 91.68847656 C-87.55212201 94.13799334 -95.8419091 96.92266532 -104.11621094 99.86816406 C-104.84669647 100.12743683 -105.57718201 100.38670959 -106.32980347 100.65383911 C-141.62505113 113.21030417 -175.87531302 128.41568525 -210.21777344 143.33691406 C-210.90566956 143.63565933 -211.59356567 143.9344046 -212.30230713 144.24220276 C-215.34810217 145.56542964 -218.39254149 146.89151253 -221.43457031 148.22338867 C-233.67254135 153.56017075 -245.92778243 158.50950896 -258.67871094 162.49316406 C-259.71125 162.82251953 -260.74378906 163.151875 -261.80761719 163.49121094 C-264.8417903 164.45107828 -267.88272468 165.38403737 -270.92871094 166.30566406 C-271.84974609 166.59119141 -272.77078125 166.87671875 -273.71972656 167.17089844 C-279.45308225 168.86008065 -284.91863607 169.70473972 -290.87109375 170.17675781 C-302.48010489 171.14077662 -308.93129037 172.54407481 -316.92871094 181.30566406 C-318.44364088 182.71653413 -319.98881129 184.08862043 -321.53759766 185.4621582 C-326.86451051 190.20662018 -331.94357016 195.20548158 -336.92871094 200.30566406 C-337.91871094 201.29566406 -337.91871094 201.29566406 -338.92871094 202.30566406 C-339.09238006 181.46944279 -339.2157442 160.63332781 -339.29139614 139.79659367 C-339.32745961 130.121257 -339.37660923 120.44632021 -339.45678711 110.77124023 C-339.52665351 102.33641281 -339.57174121 93.90187505 -339.5873304 85.4667663 C-339.59644035 81.00207205 -339.61778282 76.53820631 -339.66882133 72.07377815 C-339.71652266 67.86696706 -339.73095462 63.66132146 -339.72046471 59.45426559 C-339.72238219 57.91476406 -339.73619668 56.37522144 -339.76314926 54.83595467 C-339.90089426 46.55967413 -339.63992139 40.40899012 -333.74902439 34.07977962 C-333.14832095 33.49432149 -332.54761751 32.90886335 -331.92871094 32.30566406 C-330.84034737 31.07948473 -329.7572771 29.84855877 -328.68261719 28.61035156 C-327.62392546 27.46238831 -326.5600747 26.31916223 -325.49121094 25.18066406 C-324.63837524 24.26921631 -324.63837524 24.26921631 -323.76831055 23.33935547 C-320.36548636 19.73739121 -316.92090178 16.28274693 -313.10449219 13.11425781 C-311.3838896 11.68402622 -309.70159542 10.2077186 -308.03417969 8.71582031 C-293.10174233 -4.59522763 -276.65537371 -15.48121989 -258.92871094 -24.69433594 C-258.30270996 -25.0251416 -257.67670898 -25.35594727 -257.03173828 -25.69677734 C-179.8900405 -66.37981462 -76.3730709 -60.90306451 0 0 Z M-301.61621094 10.86816406 C-314.15285057 26.1169244 -314.34870379 47.55383078 -312.66064453 66.27929688 C-309.27080956 95.76654596 -298.74446502 124.23036828 -286.92871094 151.30566406 C-283.62536691 150.06542457 -280.72150752 148.67370156 -277.76074219 146.75878906 C-276.96394043 146.25089844 -276.16713867 145.74300781 -275.34619141 145.21972656 C-274.48654785 144.67058594 -273.6269043 144.12144531 -272.74121094 143.55566406 C-229.93231922 116.69754455 -181.59031055 94.58491464 -132.04833984 83.78027344 C-129.23921079 83.15127702 -126.46096331 82.41858215 -123.67871094 81.68066406 C-103.60676375 76.63416598 -82.52980552 74.25976315 -61.86230469 74.23535156 C-44.56913835 74.18050647 -29.27052416 72.54141785 -12.45996094 68.15722656 C-4.29272873 66.05479218 3.92877531 64.69119273 12.25878906 63.43066406 C12.92719818 63.32765991 13.5956073 63.22465576 14.28427124 63.11853027 C21.47399309 62.01555588 28.63686786 61.07539323 35.89282227 60.54736328 C38.24856171 60.36306509 38.24856171 60.36306509 41.07128906 59.30566406 C39.4656284 54.55290851 36.85248741 50.75873097 34.00878906 46.68066406 C33.51781738 45.97280762 33.0268457 45.26495117 32.52099609 44.53564453 C28.32178082 38.54472782 23.8593147 32.83965022 19.07128906 27.30566406 C18.40097656 26.52449219 17.73066406 25.74332031 17.04003906 24.93847656 C14.76318365 22.34727917 12.43347796 19.81945612 10.07128906 17.30566406 C9.54825195 16.74862793 9.02521484 16.1915918 8.48632812 15.61767578 C-24.57357558 -19.29140482 -67.10324008 -36.93659077 -113.92871094 -44.69433594 C-114.72954102 -44.82855957 -115.53037109 -44.9627832 -116.35546875 -45.10107422 C-178.08698602 -54.95538692 -257.56993423 -35.31468577 -301.61621094 10.86816406 Z " fill="#0A0606" transform="translate(338.9287109375,175.6943359375)"/>
<path d="M0 0 C1.02738281 0.38671875 2.05476563 0.7734375 3.11328125 1.171875 C6.1233594 2.36267515 9.06441986 3.63689947 12 5 C12.68964844 5.31839844 13.37929688 5.63679688 14.08984375 5.96484375 C15.75 6.875 15.75 6.875 18 9 C18.47563795 12.32946565 18.17975565 15.1211946 17.5078125 18.40625 C16.35012306 25.31176593 17.68396024 29.15764168 21.09448242 35.22460938 C25.30491141 42.94111661 27.11590278 51.46773116 29 60 C29.18030762 60.80840332 29.36061523 61.61680664 29.54638672 62.44970703 C33.59095639 85.18898303 27.97926056 110.1118932 15 129 C9.27402891 136.36471702 3.37873628 141.86008477 -5 146 C-5.65097656 146.32613281 -6.30195313 146.65226563 -6.97265625 146.98828125 C-16.66877978 151.48472535 -28.72598753 151.54239942 -38.6875 148 C-59.24534477 139.12161205 -70.20358249 122.11360211 -78.19140625 102 C-86.23494203 79.67993024 -84.89126864 53.55019961 -75.65234375 31.83203125 C-72.50477749 25.20955183 -68.81506601 19.51920469 -64 14 C-63.45214844 13.32324219 -62.90429688 12.64648438 -62.33984375 11.94921875 C-58.2047491 7.26883689 -53.55731581 4.38471278 -48.0625 1.5625 C-47.40644775 1.22017334 -46.75039551 0.87784668 -46.07446289 0.52514648 C-33.25804465 -5.69074513 -13.03578795 -5.09305204 0 0 Z " fill="#040202" transform="translate(406,320)"/>
<path d="M0 0 C15.96132236 -0.51621353 27.56853505 5.02967829 39.078125 15.80078125 C42.42201676 19.28955567 44.95036148 22.96117713 47.33203125 27.15234375 C47.77160156 27.88710938 48.21117187 28.621875 48.6640625 29.37890625 C57.14750986 44.70549694 58.76426347 63.31410268 54.33203125 80.15234375 C51.30088953 89.3910313 47.49110509 97.53868013 41.33203125 105.15234375 C40.72617188 105.93222656 40.1203125 106.71210938 39.49609375 107.515625 C31.67266948 117.01549733 19.59848375 124.95036133 7.15917969 126.40673828 C-1.67378089 127.00396474 -10.48756181 126.83003097 -18.66796875 123.15234375 C-19.55613281 122.76175781 -20.44429687 122.37117188 -21.359375 121.96875 C-35.95789404 114.80146596 -45.39451415 101.57557727 -50.87182617 86.55004883 C-56.17831614 69.36597428 -54.14852336 48.89323085 -45.91796875 33.02734375 C-45.56436279 32.34140137 -45.21075684 31.65545898 -44.84643555 30.94873047 C-37.17694815 16.42159645 -25.45495599 6.11798365 -9.66796875 1.15234375 C-6.38147959 0.38940877 -3.35382352 0.19150676 0 0 Z " fill="#020101" transform="translate(123.66796875,359.84765625)"/>
<path d="M0 0 C2.53296864 2.21243866 4.91925809 4.50484704 7.28125 6.8984375 C8.05210937 7.65898437 8.82296875 8.41953125 9.6171875 9.203125 C23.97176521 24.1456035 29.59139059 42.31349235 29.6640625 62.85693359 C29.27620813 81.88199844 21.43535197 99.84802424 8.05859375 113.25 C-7.86532586 128.43483474 -25.88952133 135.36039901 -47.890625 135.1015625 C-65.94514037 134.14356781 -82.08228156 124.01370692 -94.34375 111.2734375 C-109.37254379 93.93047547 -112.85067748 74.19740891 -111.71875 51.8984375 C-109.8839005 31.83475713 -99.74275913 14.93856412 -84.71875 1.8984375 C-59.66378035 -16.72938776 -25.45080779 -19.67318189 0 0 Z M-87.71875 23.8984375 C-90.918815 27.92070719 -93.3713913 32.33721918 -95.71875 36.8984375 C-96.47285156 38.36023438 -96.47285156 38.36023438 -97.2421875 39.8515625 C-104.5523344 54.97891851 -105.90739168 75.22942288 -100.92480469 91.30053711 C-94.56730379 108.65441424 -83.99628793 120.62953154 -67.35546875 128.40234375 C-57.25128323 132.55906024 -44.0407928 132.59243276 -33.78125 128.8359375 C-16.26609604 120.93651505 -4.44600702 108.34594991 2.59375 90.3984375 C8.86499897 71.55777535 7.40593431 52.53822244 -0.78125 34.6484375 C-8.1232305 20.91940361 -19.67854175 10.48697561 -34.71875 5.8984375 C-54.68222923 0.90756769 -74.15477282 9.29001567 -87.71875 23.8984375 Z " fill="#FAFAFA" transform="translate(173.71875,355.1015625)"/>
<path d="M0 0 C0.99 0.495 0.99 0.495 2 1 C0.60201172 1.69222656 0.60201172 1.69222656 -0.82421875 2.3984375 C-27.24527146 15.79036005 -44.98556534 36.43504228 -54.60546875 64.50390625 C-59.13200016 78.76722829 -60.41708737 92.99579364 -60.375 107.875 C-60.37412384 108.63801422 -60.37324768 109.40102844 -60.37234497 110.18716431 C-60.29118435 131.75145625 -56.14241852 151.32383093 -49.57910156 171.8371582 C-49 174 -49 174 -49 177 C-61.54 177 -74.08 177 -87 177 C-87.1581632 159.66670324 -87.28704658 142.33402456 -87.3626852 125.00020599 C-87.39874282 116.95137148 -87.44788028 108.90301793 -87.52807617 100.85449219 C-87.59796168 93.83736609 -87.64303455 86.8205884 -87.65861946 79.80312395 C-87.66772652 76.08900845 -87.6890475 72.37588943 -87.7401104 68.66209412 C-87.7967255 64.51061266 -87.797922 60.36085084 -87.79467773 56.20898438 C-87.83242813 54.37262924 -87.83242813 54.37262924 -87.87094116 52.49917603 C-87.82137489 46.63479335 -87.54117698 42.88732484 -83.61927795 38.35388184 C-82.43594227 37.21150876 -81.23102438 36.09081555 -80 35 C-79.10796875 34.05253906 -78.2159375 33.10507812 -77.296875 32.12890625 C-71.18186372 25.96700071 -64.85809929 20.33531225 -58 15 C-57.38705078 14.48010498 -56.77410156 13.96020996 -56.14257812 13.42456055 C-53.68917895 11.79334083 -52.22477698 11.54394384 -49.30859375 11.33203125 C-47.91000122 11.20513916 -47.91000122 11.20513916 -46.4831543 11.07568359 C-45.47808838 10.98883301 -44.47302246 10.90198242 -43.4375 10.8125 C-28.37963968 9.25908683 -14.30757625 4.76919208 0 0 Z " fill="#CC202C" transform="translate(87,335)"/>
<path d="M0 0 C0.64582031 0.58652344 1.29164063 1.17304688 1.95703125 1.77734375 C2.59253906 2.33292969 3.22804688 2.88851563 3.8828125 3.4609375 C11.73297567 10.73956845 15.86206888 19.71105994 16.39453125 30.40234375 C16.04636271 45.9151863 6.15808537 58.36057351 -4.578125 68.73828125 C-11.24573909 74.25412048 -20.09366034 80.2887328 -29.04296875 79.77734375 C-31.43945974 76.00015836 -31.51093508 72.05103942 -31.85546875 67.71484375 C-33.40770602 51.80968321 -37.90858329 37.05001111 -45.04296875 22.77734375 C-45.58824219 21.68550781 -46.13351562 20.59367187 -46.6953125 19.46875 C-54.62718712 4.818111 -66.94946718 -4.26581786 -82.48046875 -9.72265625 C-94.06521078 -12.90775564 -109.48251517 -12.974274 -120.23046875 -7.03515625 C-126.85663092 -3.69744259 -134.92205794 -5.47050494 -142.04296875 -6.22265625 C-141.71296875 -6.88265625 -141.38296875 -7.54265625 -141.04296875 -8.22265625 C-138.09953353 -8.97605366 -135.21251253 -9.60277006 -132.23046875 -10.16015625 C-131.33336182 -10.33272949 -130.43625488 -10.50530273 -129.51196289 -10.68310547 C-120.05972308 -12.466796 -110.57568194 -13.94458079 -101.04296875 -15.22265625 C-100.28757812 -15.32852051 -99.5321875 -15.43438477 -98.75390625 -15.54345703 C-68.30236864 -19.72789088 -25.18553386 -21.35396841 0 0 Z " fill="#BFC1C1" transform="translate(462.04296875,257.22265625)"/>
<path d="M0 0 C1 2 1 2 0.4765625 3.8125 C-0.08341845 5.25098317 -0.64584976 6.68851528 -1.2109375 8.125 C-5.21023637 22.6967028 -3.85421749 40.37839459 -1 55 C-0.78374786 56.43169133 -0.57184613 57.86404362 -0.36328125 59.296875 C3.08658931 81.44796572 11.01268237 103.52737018 20.3581543 123.859375 C20.70789307 124.62378906 21.05763184 125.38820313 21.41796875 126.17578125 C21.72500732 126.82458252 22.0320459 127.47338379 22.34838867 128.1418457 C23 130 23 130 23 134 C21.61401367 135.4128418 21.61401367 135.4128418 19.66796875 136.69921875 C18.95729248 137.18140869 18.24661621 137.66359863 17.5144043 138.16040039 C16.36258667 138.9163147 16.36258667 138.9163147 15.1875 139.6875 C13.61253273 140.76001573 12.03961441 141.83554644 10.46875 142.9140625 C9.69917969 143.44032227 8.92960937 143.96658203 8.13671875 144.50878906 C-2.45061954 151.89766729 -12.12399453 161.01278588 -21.1875 170.1875 C-22.5796875 171.5796875 -22.5796875 171.5796875 -24 173 C-24.33 173 -24.66 173 -25 173 C-25.304629 154.22351086 -25.53338323 135.44752783 -25.67355824 116.66907406 C-25.74039543 107.94837941 -25.83139401 99.22922616 -25.98071289 90.50952148 C-26.11090556 82.90304946 -26.19429936 75.29769423 -26.22315043 67.69013888 C-26.23999955 63.66686983 -26.27914523 59.64679349 -26.37449074 55.62455559 C-27.03559928 26.60719196 -27.03559928 26.60719196 -18.84643555 17.84594727 C-17.20288586 16.28141961 -15.52889062 14.83538868 -13.74866295 13.42892647 C-11.21564982 11.35906531 -8.99697482 9.01909748 -6.73191547 6.66409206 C-4.53843901 4.3894098 -2.27082783 2.19717936 0 0 Z " fill="#C2C2C0" transform="translate(25,197)"/>
<path d="M0 0 C-2.92401252 2.92401252 -6.53706324 3.34930771 -10.4375 4.375 C-53.58973536 16.30443167 -95.10706512 33.98039354 -136 52 C-216.31778357 87.36323834 -216.31778357 87.36323834 -239 87 C-235.4905572 83.28796367 -231.84545886 80.29870723 -227.5625 77.5 C-226.59630737 76.86433105 -226.59630737 76.86433105 -225.6105957 76.21582031 C-190.62323251 53.47751292 -153.2523502 35.05128296 -114 21 C-113.12134277 20.68450195 -112.24268555 20.36900391 -111.33740234 20.04394531 C-106.26070472 18.2399583 -101.15522087 16.5650593 -96 15 C-95.21302734 14.75975098 -94.42605469 14.51950195 -93.61523438 14.27197266 C-63.51805851 5.23460944 -31.49031133 -0.52864564 0 0 Z " fill="#FAFAFA" transform="translate(282,254)"/>
<path d="M0 0 C15.79768565 12.0261661 25.70376846 30.52153327 29.6640625 49.85546875 C32.67519533 72.67178453 29.93178189 97.03715543 16.2890625 116.16796875 C9.101972 125.46972242 0.11871045 132.94421366 -11.7109375 135.16796875 C-24.77452857 136.57940116 -34.28629605 132.83668182 -44.96875 125.59765625 C-46.7109375 124.16796875 -46.7109375 124.16796875 -48.7109375 121.16796875 C-48.16308594 121.44382812 -47.61523438 121.7196875 -47.05078125 122.00390625 C-46.27863281 122.38804687 -45.50648438 122.7721875 -44.7109375 123.16796875 C-43.86660156 123.59335937 -43.02226562 124.01875 -42.15234375 124.45703125 C-32.16585815 129.09119417 -22.53638039 129.87002817 -12.05078125 126.19921875 C-0.38389251 121.0572177 6.56037168 111.79050187 11.2890625 100.16796875 C18.04369503 82.616775 15.36946572 60.70925192 8.05078125 43.8203125 C1.76401494 30.22912509 -9.21251719 20.32772019 -23.0234375 14.85546875 C-32.68657803 13.05386628 -42.61764814 13.34608385 -51.12109375 18.6796875 C-61.09505688 26.089393 -67.24466648 35.19357795 -70.7109375 47.16796875 C-73.56367446 38.60975787 -67.81562965 28.19188192 -64.17578125 20.47265625 C-59.00256141 10.2185955 -50.98413479 1.4913528 -40.7109375 -3.83203125 C-40.06382812 -4.16847656 -39.41671875 -4.50492187 -38.75 -4.8515625 C-26.00431262 -10.19889111 -11.09109605 -7.49527961 0 0 Z " fill="#F9F9F9" transform="translate(400.7109375,329.83203125)"/>
<path d="M0 0 C1.23786255 -0.00725098 1.23786255 -0.00725098 2.50073242 -0.01464844 C6.52750102 -0.00314925 10.2584555 0.1208223 14.1875 1.125 C14.1875 1.785 14.1875 2.445 14.1875 3.125 C13.02120548 4.19360995 11.80244068 5.2052998 10.5625 6.1875 C3.34693979 12.31753346 -2.10032264 20.7630027 -3.8125 30.125 C-4.88056885 30.14687378 -4.88056885 30.14687378 -5.97021484 30.16918945 C-57.90352046 31.34439539 -108.45751514 42.46472984 -157.85351562 58.19335938 C-163.50019082 59.97122345 -169.16856871 61.67802528 -174.83700562 63.38494873 C-176.82318041 63.98436124 -178.8077525 64.58886453 -180.79223633 65.19384766 C-182.0067749 65.5604248 -183.22131348 65.92700195 -184.47265625 66.3046875 C-185.55168213 66.63194824 -186.63070801 66.95920898 -187.74243164 67.29638672 C-190.75568755 68.10966629 -193.72702854 68.6673145 -196.8125 69.125 C-194.24374437 66.55624437 -191.71930921 65.66855345 -188.3671875 64.24609375 C-187.37032928 63.82058228 -187.37032928 63.82058228 -186.35333252 63.38647461 C-184.13341068 62.44031393 -181.9105701 61.50123746 -179.6875 60.5625 C-178.11296819 59.89431564 -176.53858961 59.22577012 -174.96435547 58.55688477 C-172.48024861 57.5017067 -169.99588602 56.44715575 -167.51065063 55.39463806 C-161.62675828 52.90177499 -155.75622155 50.37931663 -149.890625 47.84375 C-112.09415191 31.53729554 -73.51693919 16.17585051 -33.8125 5.125 C-32.56855469 4.74730469 -31.32460938 4.36960937 -30.04296875 3.98046875 C-19.79883669 0.89304663 -10.63319984 0.06017089 0 0 Z " fill="#CA1F2B" transform="translate(313.8125,254.875)"/>
<path d="M0 0 C0.89525391 -0.01224609 1.79050781 -0.02449219 2.71289062 -0.03710938 C19.34099157 -0.07312692 34.05274253 5.63461882 46.8125 16.1875 C47.98039062 17.11175781 47.98039062 17.11175781 49.171875 18.0546875 C64.31099839 30.63582107 73.25966187 48.81024299 75.8125 68.1875 C77.39143802 92.51989646 70.88263319 114.5067732 55.5 133.5 C42.54181504 147.37531677 22.24638157 157.95183286 3.18676758 158.60546875 C-16.78560016 158.77420773 -35.42048105 152.92299925 -50.1875 139.1875 C-50.868125 138.59710938 -51.54875 138.00671875 -52.25 137.3984375 C-61.60497898 128.81085914 -68.08707825 117.09967412 -72.1875 105.1875 C-72.44644043 104.49358154 -72.70538086 103.79966309 -72.97216797 103.0847168 C-75.44925433 95.87271432 -75.6469992 89.07829751 -75.5625 81.5 C-75.55887451 80.26137207 -75.55524902 79.02274414 -75.55151367 77.74658203 C-75.4502336 69.83427097 -74.56920181 62.84920725 -72.65625 55.1796875 C-72.02235017 51.13329356 -72.82834376 48.25186391 -74.42578125 44.53125 C-75.52019753 41.16381529 -75.63320487 38.71087387 -75.1875 35.1875 C-73.36206458 32.85722241 -71.84287726 31.24663174 -69.625 29.375 C-69.03928223 28.86291992 -68.45356445 28.35083984 -67.85009766 27.82324219 C-52.4403311 14.65912 -34.78284605 6.27309568 -15.1875 1.1875 C-14.45660156 0.99414062 -13.72570312 0.80078125 -12.97265625 0.6015625 C-8.65460232 -0.04039222 -4.35937718 0.00307215 0 0 Z M-46.1875 23.1875 C-46.93257812 23.84105469 -47.67765625 24.49460937 -48.4453125 25.16796875 C-61.56193635 37.3730984 -69.51411193 54.72149856 -70.29248047 72.59863281 C-70.37343826 75.33711812 -70.41518214 78.07292319 -70.4375 80.8125 C-70.44692627 81.68326172 -70.45635254 82.55402344 -70.46606445 83.45117188 C-70.37153461 102.35714149 -62.53098418 119.08657778 -49.69140625 132.7734375 C-36.79688731 145.2052826 -20.91340166 153.11200922 -2.875 153.5625 C19.28809193 153.0197304 37.4940747 144.48955781 52.78515625 128.5625 C65.90377459 113.19425347 72.27927786 93.35546662 71.00146484 73.31640625 C70.1608922 63.84638891 68.4474214 54.57804902 63.8125 46.1875 C63.07193359 44.77404297 63.07193359 44.77404297 62.31640625 43.33203125 C58.3179767 36.04620927 53.66461063 30.06951921 47.8125 24.1875 C47.14863281 23.48882812 46.48476562 22.79015625 45.80078125 22.0703125 C34.54372752 11.04912085 18.63466181 4.99485907 3.0625 4.8125 C-15.49019488 5.02831864 -32.33474047 10.60143249 -46.1875 23.1875 Z " fill="#0C0707" transform="translate(132.1875,336.8125)"/>
<path d="M0 0 C2.02613842 17.31150528 3.73343869 34.6160481 5 52 C4.02546875 52.41507812 3.0509375 52.83015625 2.046875 53.2578125 C-5.51037156 56.52718859 -12.96934383 59.94297394 -20.32421875 63.6484375 C-20.95214325 63.96475128 -21.58006775 64.28106506 -22.22702026 64.60696411 C-25.38706295 66.20268932 -28.54122223 67.80927382 -31.69042969 69.42626953 C-33.43501465 70.31354736 -33.43501465 70.31354736 -35.21484375 71.21875 C-36.25761475 71.75435547 -37.30038574 72.28996094 -38.37475586 72.84179688 C-41 74 -41 74 -44 74 C-44.04898438 73.00484375 -44.09796875 72.0096875 -44.1484375 70.984375 C-44.57228778 62.91653659 -45.18624571 54.90681491 -46.0625 46.875 C-46.96166462 38.5408075 -47.22854715 30.38006203 -47 22 C-36.14509435 16.08865379 -25.15783496 10.56318093 -13.9375 5.375 C-12.78975098 4.84229492 -11.64200195 4.30958984 -10.45947266 3.76074219 C-9.38874512 3.26993164 -8.31801758 2.77912109 -7.21484375 2.2734375 C-6.25698975 1.83435059 -5.29913574 1.39526367 -4.31225586 0.94287109 C-2 0 -2 0 0 0 Z " fill="#7C050C" transform="translate(97,207)"/>
<path d="M0 0 C0 3.4168368 -0.78842504 4.82735462 -2.375 7.8125 C-13.01038247 27.87045817 -6.2506835 53.34501721 -0.12695312 73.93554688 C1.45130715 79.00673692 3.16312898 84.01699884 5 89 C5.66 87.68 6.32 86.36 7 85 C7 90.61 7 96.22 7 102 C8.32 102.66 9.64 103.32 11 104 C12.16796875 106.22265625 12.16796875 106.22265625 13.1875 109.0625 C15.34168628 114.60952968 17.8831616 119.81478872 20.6875 125.0625 C21.27664185 126.16960327 21.27664185 126.16960327 21.87768555 127.29907227 C23.48942657 130.29944355 25.10769389 133.16154084 27 136 C23.8796258 138.00728948 20.75296965 140.00457109 17.625 142 C16.73554687 142.57234375 15.84609375 143.1446875 14.9296875 143.734375 C13.65351562 144.54648437 13.65351562 144.54648437 12.3515625 145.375 C11.56604004 145.87773437 10.78051758 146.38046875 9.97119141 146.8984375 C8 148 8 148 6 148 C-31.00055983 59.11338458 -31.00055983 59.11338458 -15.75 19.6875 C-12.02688156 11.42478978 -7.11058215 5.55382748 0 0 Z " fill="#C2C2C0" transform="translate(46,179)"/>
<path d="M0 0 C3.72423314 0.62070552 4.68391776 1.56564158 7 4.5 C9.55067266 17.66597209 3.86899344 32.45453616 -3 43.5 C-8.27687511 50.65062155 -14.07385562 55.54311045 -22 59.5 C-22.73347656 59.9125 -23.46695313 60.325 -24.22265625 60.75 C-32.90799472 65.04052741 -43.72206101 64.77957992 -53.06640625 62.875 C-63.67937056 59.15464944 -69.65316209 51.26074401 -74.78515625 41.6484375 C-76.07872282 38.2959788 -76.42446656 36.05743402 -76 32.5 C-73.6875 30.125 -73.6875 30.125 -71 28.5 C-70.01 28.5 -69.02 28.5 -68 28.5 C-67.71125 27.88125 -67.4225 27.2625 -67.125 26.625 C-66 24.5 -66 24.5 -64 22.5 C-60.40588208 22.03120201 -58.64835963 22.05638552 -55.625 24.125 C-53.51293494 27.21186432 -53.38804855 28.8282913 -54 32.5 C-55.8125 34.875 -55.8125 34.875 -58 36.5 C-58.99 36.5 -59.98 36.5 -61 36.5 C-57.48796108 42.90247803 -54.20481519 47.09839494 -47 49.5 C-36.77863612 50.36690068 -28.05856288 47.87010209 -20 41.5 C-10.75301823 31.80814625 -7.59881002 20.42966316 -7.46875 7.27734375 C-6.70041628 2.72496647 -4.48716863 0.74786144 0 0 Z " fill="#965024" transform="translate(168,416.5)"/>
<path d="M0 0 C3.11034461 2.41915692 4.26587028 4.19966979 5 8 C6.33201276 21.53763345 5.18231015 35.04442272 -2.8125 46.5 C-3.83900586 47.69845862 -4.90255303 48.86614484 -6 50 C-6.58523438 50.62390625 -7.17046875 51.2478125 -7.7734375 51.890625 C-13.6756285 57.62418197 -20.40089455 60.34298494 -28.5 61.5 C-39.02906797 59.99584743 -47.57949685 55.43369147 -54.30078125 47.171875 C-61.52038802 37.37475321 -61.52038802 37.37475321 -61 31 C-59.9375 29.125 -59.9375 29.125 -58 28 C-53.63293092 27.61008312 -51.69486103 27.53675931 -48 30 C-47.175 30.12375 -46.35 30.2475 -45.5 30.375 C-43 31 -43 31 -41.1875 32.5625 C-39.44367937 36.1419213 -39.80208992 39.04179842 -40 43 C-39.21625 43.309375 -38.4325 43.61875 -37.625 43.9375 C-35 45 -35 45 -33 46 C-27.39556595 46.37362894 -23.7958721 46.23200076 -19 43 C-13.24276157 37.80581667 -10.43636295 31.80760572 -9.73413086 24.07080078 C-9.58995626 19.83119771 -9.5630808 15.59725381 -9.56054688 11.35546875 C-9.54185547 10.32292969 -9.52316406 9.29039062 -9.50390625 8.2265625 C-9.50205322 7.29408691 -9.5002002 6.36161133 -9.49829102 5.40087891 C-9 3 -9 3 -7.12475586 1.20068359 C-4.4462689 -0.31290929 -3.03185626 -0.53057485 0 0 Z " fill="#965024" transform="translate(405,392)"/>
<path d="M0 0 C6.43660841 3.62212184 12.29222297 7.69410267 17.95703125 12.421875 C18.6221875 12.95296875 19.28734375 13.4840625 19.97265625 14.03125 C27.03544582 19.87056421 32.51719971 27.09440476 37.95703125 34.421875 C37.46203125 35.411875 37.46203125 35.411875 36.95703125 36.421875 C35.75949219 35.90238281 34.56195313 35.38289063 33.328125 34.84765625 C5.22892671 22.76076201 -23.42404485 15.78585164 -54.04296875 14.421875 C-39.98684153 -3.81310085 -20.71210887 -10.74158149 0 0 Z " fill="#CB1F2B" transform="translate(374.04296875,271.578125)"/>
<path d="M0 0 C2.94140077 1.47070039 3.23075931 3.80701867 4.28515625 6.765625 C5.1372489 9.42899657 5.77790402 12.12963852 6.4140625 14.8515625 C7.05748843 17.21079089 7.91546968 19.41263111 8.8125 21.6875 C12.0854209 30.55369617 14.09040494 39.76044728 16 49 C16.16951172 49.81210937 16.33902344 50.62421875 16.51367188 51.4609375 C25.06465776 94.74808598 17.65964942 142.30792836 9 185 C5.04 185 1.08 185 -3 185 C-1.83151621 178.86824222 -0.48204176 172.84386606 1.10644531 166.80834961 C14.21087575 116.79255175 17.43943551 56.8545609 0.56835938 7.21875 C-0.06653959 4.74024409 -0.09645494 2.54820496 0 0 Z " fill="#EB6A58" transform="translate(426,327)"/>
<path d="M0 0 C1.2065625 0.0309375 1.2065625 0.0309375 2.4375 0.0625 C4.71784504 4.84131003 5.31830884 9.75094327 6.0625 14.9375 C6.26359375 16.24654297 6.26359375 16.24654297 6.46875 17.58203125 C7.18848158 22.46592413 7.58542747 27.12710181 7.4375 32.0625 C5.4575 32.0625 3.4775 32.0625 1.4375 32.0625 C-0.0432848 29.1009304 0.08435963 26.22743705 -0.125 22.9375 C-0.25068359 21.01550781 -0.25068359 21.01550781 -0.37890625 19.0546875 C-0.43949219 18.06726563 -0.50007813 17.07984375 -0.5625 16.0625 C-1.2225 16.0625 -1.8825 16.0625 -2.5625 16.0625 C-2.67464844 16.91070312 -2.78679687 17.75890625 -2.90234375 18.6328125 C-3.60702684 22.29382877 -4.74761152 25.47636997 -6.125 28.9375 C-6.58003906 30.08992188 -7.03507812 31.24234375 -7.50390625 32.4296875 C-7.85324219 33.29851562 -8.20257813 34.16734375 -8.5625 35.0625 C-12.81842632 30.93554115 -16.68540507 26.54776668 -20.5625 22.0625 C-20.2325 27.3425 -19.9025 32.6225 -19.5625 38.0625 C-21.5425 38.7225 -23.5225 39.3825 -25.5625 40.0625 C-26.24368591 36.4400765 -26.90470918 32.81423859 -27.5625 29.1875 C-27.75328125 28.17429688 -27.9440625 27.16109375 -28.140625 26.1171875 C-29.29419237 19.6901693 -29.82308928 13.58989943 -29.5625 7.0625 C-27.5825 6.7325 -25.6025 6.4025 -23.5625 6.0625 C-22.87542969 6.96613281 -22.18835938 7.86976563 -21.48046875 8.80078125 C-20.57042905 9.99227653 -19.66026634 11.18367786 -18.75 12.375 C-18.07227539 13.26735352 -18.07227539 13.26735352 -17.38085938 14.17773438 C-15.2394293 16.97566126 -13.09092333 19.61118233 -10.5625 22.0625 C-10.35568604 21.43158447 -10.14887207 20.80066895 -9.93579102 20.15063477 C-9.00196574 17.30772551 -8.06354674 14.46635384 -7.125 11.625 C-6.79951172 10.63177734 -6.47402344 9.63855469 -6.13867188 8.61523438 C-5.82607422 7.67099609 -5.51347656 6.72675781 -5.19140625 5.75390625 C-4.90338135 4.87935791 -4.61535645 4.00480957 -4.31860352 3.10375977 C-3.19782958 0.07799584 -3.19782958 0.07799584 0 0 Z " fill="#7F0C14" transform="translate(186.5625,187.9375)"/>
<path d="M0 0 C2.625 1.5625 2.625 1.5625 4 4 C5.36389414 9.87523629 5.36389414 9.87523629 4.3125 13.125 C4.209375 13.74375 4.10625 14.3625 4 15 C4.66 15.7425 5.32 16.485 6 17.25 C8.09628358 20.13238992 8.33723296 20.69798343 8.125 24.0625 C7.51032307 27.11290608 7.00538682 27.99415146 4.8125 30.375 C-0.4455287 33.30910984 -7.12573659 33.38843285 -13 34 C-13.67580829 29.98064819 -14.33900261 25.95931185 -15 21.9375 C-15.19078125 20.80376953 -15.3815625 19.67003906 -15.578125 18.50195312 C-16.48679524 12.9363479 -17.26201086 7.64142133 -17 2 C-11.46073376 -0.39535837 -5.93842833 -0.73302475 0 0 Z " fill="#7E0911" transform="translate(214,184)"/>
<path d="M0 0 C3.95215917 2.08793315 6.63625364 4.21936822 9 8 C9.74700572 12.5040051 9.52328795 16.70555085 7.8125 20.9375 C5.03479225 24.09833986 2.90830133 25.70960632 -1.3359375 26.35546875 C-5.71910426 26.59897801 -8.97900014 26.55295812 -12.5 23.75 C-16.38158319 19.48025849 -17.48240703 16.97017151 -17.31640625 11.02734375 C-16.62899904 6.62284569 -14.06488762 3.88740635 -10.75 1.125 C-7.10441212 -0.36637686 -3.84486501 -0.68604454 0 0 Z " fill="#FAFAFA" transform="translate(148,383)"/>
<path d="M0 0 C4.03691571 0.97442793 5.78201619 1.87407265 8.625 4.875 C11.238057 9.65058693 12.31570127 13.44806146 11.625 18.875 C10.12754139 21.48347629 8.75471098 23.74528902 6.625 25.875 C2.02905678 26.34238406 -1.03029902 26.61733855 -4.75 23.6875 C-9.10327144 19.0232806 -9.77776555 15.24997103 -9.6328125 9.02734375 C-9.27481174 6.03857981 -8.26907819 4.18998446 -6.375 1.875 C-3.375 -0.125 -3.375 -0.125 0 0 Z " fill="#F9F9F9" transform="translate(383.375,365.125)"/>
<path d="M0 0 C2.578125 2.06640625 2.578125 2.06640625 5.25 4.5625 C6.14203125 5.38878906 7.0340625 6.21507812 7.953125 7.06640625 C8.62859375 7.70449219 9.3040625 8.34257812 10 9 C6.4423139 12.96519638 1.84396005 14.6046032 -2.9375 16.75 C-3.84435547 17.17410156 -4.75121094 17.59820312 -5.68554688 18.03515625 C-6.56146484 18.43089844 -7.43738281 18.82664063 -8.33984375 19.234375 C-9.13769287 19.59756836 -9.93554199 19.96076172 -10.75756836 20.33496094 C-13.33765574 21.10013873 -14.51304853 20.95951712 -17 20 C-19.578125 18.22265625 -19.578125 18.22265625 -22.25 16.0625 C-23.14203125 15.35222656 -24.0340625 14.64195312 -24.953125 13.91015625 C-25.62859375 13.27980469 -26.3040625 12.64945313 -27 12 C-27 11.34 -27 10.68 -27 10 C-23.25933545 8.12654604 -19.50615406 6.27967592 -15.75 4.4375 C-14.68652344 3.90447266 -13.62304688 3.37144531 -12.52734375 2.82226562 C-11.50253906 2.32275391 -10.47773437 1.82324219 -9.421875 1.30859375 C-8.47924805 0.84251709 -7.53662109 0.37644043 -6.56542969 -0.10375977 C-3.76219665 -1.08307728 -2.69729279 -1.14483167 0 0 Z " fill="#FBF7F7" transform="translate(84,225)"/>
<path d="M0 0 C0.99 0.33 1.98 0.66 3 1 C2.34 2.98 1.68 4.96 1 7 C0.33613281 7.07476562 -0.32773438 7.14953125 -1.01171875 7.2265625 C-7.14541074 8.0931459 -7.14541074 8.0931459 -12.125 11.5 C-14.60814386 16.13520187 -14.92486194 19.84719779 -14 25 C-12.72482126 27.85998345 -12.72482126 27.85998345 -10 29 C-6.1692519 29.21581679 -3.05497878 28.82420217 0 26.4375 C0.33 25.963125 0.66 25.48875 1 25 C2.65 25.66 4.3 26.32 6 27 C5.61256127 29.45552385 5.30405354 30.71075932 3.4765625 32.44921875 C2.86554688 32.85785156 2.25453125 33.26648438 1.625 33.6875 C1.01914063 34.10386719 0.41328125 34.52023438 -0.2109375 34.94921875 C-4.25244531 37.32294277 -8.43443929 37.61392957 -13 37 C-16.62425252 35.2220648 -18.53487471 33.6511754 -20.875 30.375 C-23.07299141 23.78102576 -22.83979614 18.12035349 -20 11.75 C-15.55001925 3.65333015 -9.08750411 -0.31885979 0 0 Z " fill="#7F0D14" transform="translate(134,203)"/>
<path d="M0 0 C1 2 1 2 0.45849609 3.83178711 C-0.5534431 6.20786262 -1.57780474 8.57671771 -2.625 10.9375 C-2.96917969 11.76185547 -3.31335938 12.58621094 -3.66796875 13.43554688 C-5.74956532 18.16330587 -7.11971449 20.83248009 -12 23 C-13.528683 23.81950913 -15.0529717 24.64723748 -16.57421875 25.48046875 C-18.27781055 26.38438849 -19.98226091 27.28669171 -21.6875 28.1875 C-22.9878418 28.88262695 -22.9878418 28.88262695 -24.31445312 29.59179688 C-25.55678711 30.24825195 -25.55678711 30.24825195 -26.82421875 30.91796875 C-27.57791748 31.31781982 -28.33161621 31.7176709 -29.1081543 32.12963867 C-31 33 -31 33 -33 33 C-32.3677493 30.92762272 -31.71130554 28.86110013 -30.97265625 26.82421875 C-29.93552546 23.98458686 -29.93552546 23.98458686 -29.30859375 20.89453125 C-27.67452585 15.53094368 -26.12306088 12.33840852 -21.37353516 9.34423828 C-14.46450155 5.73484696 -7.27918534 2.77458871 0 0 Z " fill="#EA1D25" transform="translate(93,235)"/>
<path d="M0 0 C1.65 0 3.3 0 5 0 C20 26.26666667 20 26.26666667 20 30 C19.01 30 18.02 30 17 30 C16.5875 28.865625 16.175 27.73125 15.75 26.5625 C14.76504123 24.53810509 14.76504123 24.53810509 13 23 C8.99721141 22.06317714 5.10031203 21.95487078 1 22 C1 24.64 1 27.28 1 30 C-0.32 30 -1.64 30 -3 30 C-2.45596557 19.9067296 -1.46124662 10.00173656 0 0 Z " fill="#811018" transform="translate(278,179)"/>
<path d="M0 0 C0.99 0 1.98 0 3 0 C5.56894362 10.3007157 7.72890468 20.44656388 9 31 C4.76794434 30.69498698 2.8471401 29.22993556 0.05395508 26.10058594 C-0.3969751 25.57239258 -0.84790527 25.04419922 -1.3125 24.5 C-1.78598877 23.96407227 -2.25947754 23.42814453 -2.74731445 22.87597656 C-3.71036507 21.78416197 -4.66865829 20.68813201 -5.62207031 19.58789062 C-7.61915945 17.28649663 -9.65553591 15.02059333 -11.6875 12.75 C-12.79266156 11.50087952 -13.89725393 10.25125342 -15 9 C-14.7834375 10.14597656 -14.566875 11.29195312 -14.34375 12.47265625 C-14.06217548 14.00254447 -13.7809437 15.53249581 -13.5 17.0625 C-13.35691406 17.81466797 -13.21382812 18.56683594 -13.06640625 19.34179688 C-12.223569 23.97740175 -11.84984738 28.2889615 -12 33 C-12.99 33 -13.98 33 -15 33 C-15.71530155 28.92544453 -16.42729289 24.8503259 -17.13623047 20.7746582 C-17.37783501 19.38843185 -17.62034128 18.00236234 -17.86376953 16.61645508 C-18.21363931 14.62362537 -18.55999138 12.63017908 -18.90625 10.63671875 C-19.11572266 9.43748779 -19.32519531 8.23825684 -19.54101562 7.00268555 C-20 4 -20 4 -20 1 C-15.60198677 1.41102927 -13.47626378 4.36486839 -10.75 7.5 C-10.27199951 8.03592773 -9.79399902 8.57185547 -9.30151367 9.12402344 C-7.86013008 10.74284142 -6.43001198 12.37113872 -5 14 C-3.43788868 15.75034696 -1.87544286 17.50039551 -0.3125 19.25 C0.79266156 20.49912048 1.89725393 21.74874658 3 23 C2.41993763 15.24548194 1.37559416 7.65257723 0 0 Z " fill="#85171E" transform="translate(250,179)"/>
<path d="M0 0 C2.2578125 0.046875 2.2578125 0.046875 5 1 C6.54788979 3.44020273 7.71503331 5.63400691 8.875 8.25 C9.55642367 9.70674624 10.24005557 11.16246137 10.92578125 12.6171875 C11.26689941 13.3503418 11.60801758 14.08349609 11.95947266 14.83886719 C14.04830579 19.17728833 16.47369093 23.33653148 18.84765625 27.5234375 C19.22792969 28.34070313 19.60820312 29.15796875 20 30 C19.67 30.66 19.34 31.32 19 32 C16.69213431 29.85129747 15.13323642 28.32917233 13.9375 25.375 C10.70692184 21.41493645 5.88097911 21.55522173 1 21 C1 23.31 1 25.62 1 28 C-0.32 28 -1.64 28 -3 28 C-1.54775281 3.09550562 -1.54775281 3.09550562 0 0 Z " fill="#83131A" transform="translate(334,184)"/>
<path d="M0 0 C2.53937969 1.12697277 4.66021098 2.47197452 7 4 C7 4.99 7 5.98 7 7 C6.360625 6.67 5.72125 6.34 5.0625 6 C1.10596024 4.70806865 -2.87411362 4.24615435 -7 5 C-9.71068791 9.06603187 -9.51441255 12.23147736 -9 17 C-7.69056816 20.85554931 -6.39081791 22.64640284 -3.375 25.375 C1.08814302 27.52392071 4.08608708 27.2978129 9 27 C8.67 24.03 8.34 21.06 8 18 C6.02 17.67 4.04 17.34 2 17 C2 16.01 2 15.02 2 14 C4.97 14.33 7.94 14.66 11 15 C12.24591691 20.13940726 13.27288504 24.6787418 13 30 C9.0125578 31.9937211 4.33454881 31.51476423 0 31 C-6.7270367 28.42037601 -9.96621043 23.86420019 -13.25 17.625 C-14.28009505 14.01966733 -14.72581524 10.67938022 -14 7 C-10.46501071 0.902472 -6.88159894 -0.56406549 0 0 Z " fill="#881D24" transform="translate(312,180)"/>
<path d="M0 0 C2.50424887 10.19587038 5.0320813 21.47277075 4 32 C1 34 1 34 -2 34 C-5.42234681 23.73295956 -5.42085315 11.74469816 -6 1 C-3.92446352 0.4465236 -2.15634036 0 0 0 Z " fill="#821219" transform="translate(149,198)"/>
<path d="M0 0 C2.375 1.625 2.375 1.625 4 4 C4.44912849 7.14389944 4.504106 9.05480125 3 11.875 C-0.33905554 13.75321874 -3.20998874 13.30079454 -7 13 C-9 11 -9 11 -9.3125 7.0625 C-9.2339218 4.51564191 -9.13665953 3.24295027 -7.875 1 C-5.05480125 -0.504106 -3.14389944 -0.44912849 0 0 Z " fill="#FAF9F9" transform="translate(110,439)"/>
<path d="M0 0 C-0.33 0.99 -0.66 1.98 -1 3 C-1.76183594 3.09796875 -2.52367187 3.1959375 -3.30859375 3.296875 C-10.53947988 4.33776102 -10.53947988 4.33776102 -17.1875 7.1875 C-23.81366217 10.52521366 -31.87908919 8.75215131 -39 8 C-38.67 7.34 -38.34 6.68 -38 6 C-36.2409668 5.4375 -36.2409668 5.4375 -33.94921875 5 C-33.11084473 4.8359668 -32.2724707 4.67193359 -31.40869141 4.50292969 C-30.06170166 4.25397949 -30.06170166 4.25397949 -28.6875 4 C-27.3250415 3.73944824 -27.3250415 3.73944824 -25.93505859 3.47363281 C-23.29182461 2.97217572 -20.64649399 2.48391846 -18 2 C-16.75089844 1.76796875 -15.50179688 1.5359375 -14.21484375 1.296875 C-9.38857407 0.44266798 -4.91438089 -0.08596585 0 0 Z " fill="#B0B2B2" transform="translate(359,243)"/>
<path d="M0 0 C2.97454134 0.32157204 4.59335278 0.62139742 6.8125 2.6875 C8.34400223 5.66989907 8.35245721 7.68690226 8 11 C7.01 12.485 7.01 12.485 6 14 C0.4368231 13.51624549 0.4368231 13.51624549 -1.375 11.375 C-2.20915334 8.2052173 -2.12542189 5.26096908 -2 2 C-1.34 2 -0.68 2 0 2 C0 1.34 0 0.68 0 0 Z " fill="#F3F1F0" transform="translate(357,422)"/>
<path d="M0 0 C0.99 0 1.98 0 3 0 C3.84553209 3.68481085 4.67420822 7.37321942 5.5 11.0625 C5.73847656 12.10083984 5.97695313 13.13917969 6.22265625 14.20898438 C7.41853799 19.59045219 8.31288464 24.48540816 8 30 C7.01 30 6.02 30 5 30 C4.16059383 25.75117602 3.32952653 21.50076295 2.5 17.25 C2.26152344 16.0434375 2.02304687 14.836875 1.77734375 13.59375 C1.55175781 12.43359375 1.32617188 11.2734375 1.09375 10.078125 C0.88427734 9.00981445 0.67480469 7.94150391 0.45898438 6.84082031 C0 4 0 4 0 0 Z " fill="#861A21" transform="translate(261,179)"/>
<path d="M0 0 C2.91024202 2.50058918 4.16791164 5.19655377 5.6875 8.6875 C6.12449219 9.68136719 6.56148438 10.67523438 7.01171875 11.69921875 C7.33785156 12.45847656 7.66398437 13.21773437 8 14 C5.03 14 2.06 14 -1 14 C-1.08333357 9.1666528 -0.95261487 4.76307437 0 0 Z " fill="#F4EAEB" transform="translate(281,183)"/>
<path d="M0 0 C1.45792884 -0.05399736 2.91642712 -0.09279177 4.375 -0.125 C5.18710938 -0.14820313 5.99921875 -0.17140625 6.8359375 -0.1953125 C9 0 9 0 11 2 C10.67 3.32 10.34 4.64 10 6 C7.03 6.66 4.06 7.32 1 8 C0.67 5.36 0.34 2.72 0 0 Z " fill="#F5ECED" transform="translate(205,203)"/>
<path d="M0 0 C0.66 0 1.32 0 2 0 C3.00460531 2.12282669 4.00355602 4.24833021 5 6.375 C5.556875 7.55835938 6.11375 8.74171875 6.6875 9.9609375 C8 13 8 13 8 15 C5.36 14.67 2.72 14.34 0 14 C0 9.38 0 4.76 0 0 Z " fill="#F1E6E6" transform="translate(336,188)"/>
<path d="M0 0 C2.97 0 5.94 0 9 0 C9.625 2.375 9.625 2.375 10 5 C8 7 8 7 4.375 7.125 C3.26125 7.08375 2.1475 7.0425 1 7 C0.67 4.69 0.34 2.38 0 0 Z " fill="#F4EBEC" transform="translate(203,190)"/>
<path d="M0 0 C3.65188024 1.12365546 7.0967666 2.46872628 10.5625 4.0625 C13.69859538 5.48751631 16.55470799 6.55544619 20 7 C20 7.99 20 8.98 20 10 C13.16583467 8.24508907 6.85061298 6.0381224 1 2 C0.67 1.34 0.34 0.68 0 0 Z " fill="#DFDFDF" transform="translate(95,478)"/>
<path d="M0 0 C2.94483646 1.47241823 3.27708447 3.82641311 4.3359375 6.7890625 C5.2577414 9.85812725 5.66827712 12.81546031 6 16 C5.01 15.67 4.02 15.34 3 15 C2.05078125 12.890625 2.05078125 12.890625 1.3125 10.25 C1.06113281 9.38890625 0.80976563 8.5278125 0.55078125 7.640625 C0.00246572 5.01182147 -0.10108994 2.67647662 0 0 Z " fill="#E36655" transform="translate(426,327)"/>
<path d="M0 0 C-2.54242712 3.06146933 -5.20468641 4.01341898 -8.9375 5.25 C-9.97777344 5.60578125 -11.01804687 5.9615625 -12.08984375 6.328125 C-15.03557137 7.00821245 -16.1992223 6.83493037 -19 6 C-16.40074504 4.80057395 -13.79654493 3.61527179 -11.1875 2.4375 C-10.08051758 1.92413086 -10.08051758 1.92413086 -8.95117188 1.40039062 C-8.23896484 1.08134766 -7.52675781 0.76230469 -6.79296875 0.43359375 C-6.1383667 0.13509521 -5.48376465 -0.16340332 -4.80932617 -0.47094727 C-3 -1 -3 -1 0 0 Z " fill="#B91E28" transform="translate(136,317)"/>
<path d="M0 0 C0.99 0 1.98 0 3 0 C4.17571451 3.67410785 4.07366746 7.16929183 4 11 C3.34 11 2.68 11 2 11 C1.34 7.37 0.68 3.74 0 0 Z " fill="#800D15" transform="translate(250,179)"/>
<path d="M0 0 C3.33333333 1.66666667 6.66666667 3.33333333 10 5 C9.67 5.99 9.34 6.98 9 8 C7.68388323 7.04663979 6.37221039 6.08714226 5.0625 5.125 C4.33160156 4.59132813 3.60070312 4.05765625 2.84765625 3.5078125 C1 2 1 2 0 0 Z " fill="#D1D1D1" transform="translate(352,451)"/>
<path d="M0 0 C3.125 -0.1875 3.125 -0.1875 6 0 C5.67 0.99 5.34 1.98 5 3 C2.69 3 0.38 3 -2 3 C-1.34 2.01 -0.68 1.02 0 0 Z " fill="#999B9B" transform="translate(353,243)"/>
<path d="M0 0 C2.15377564 2.62198774 3.40072174 4.64404172 4 8 C2.0625 7.25 2.0625 7.25 0 6 C-0.8125 4 -0.8125 4 -1 2 C-0.67 1.34 -0.34 0.68 0 0 Z " fill="#8E2930" transform="translate(350,208)"/>
</svg>
