<?xml version="1.0" encoding="UTF-8"?>
<svg version="1.1" xmlns="http://www.w3.org/2000/svg" width="512" height="512">
<path d="M0 0 C0.63502441 0.21430664 1.27004883 0.42861328 1.92431641 0.64941406 C10.91790734 3.76127353 23.11976314 8.11976314 30 15 C31.69259143 14.99225056 33.38493867 14.91470036 35.07421875 14.80859375 C67.09579773 13.01083951 92.55838405 21.034828 116.671875 42.36328125 C131.70746013 56.62840938 141.81288519 75.38156058 148 95 C148.63800537 95.06469482 149.27601074 95.12938965 149.93334961 95.19604492 C174.55840819 97.77198038 197.25962175 102.63232461 216 120 C216.49951172 120.45858398 216.99902344 120.91716797 217.51367188 121.38964844 C251.45740344 152.86807897 271.08189455 206.79656537 273.10643005 252.39723206 C273.16347783 254.95270173 273.19036247 257.50642718 273.203125 260.0625 C273.21013931 261.00333435 273.21715363 261.9441687 273.22438049 262.91351318 C273.24182637 265.94239117 273.24823531 268.97107358 273.25 272 C273.25101212 273.55249451 273.25101212 273.55249451 273.25204468 275.13635254 C273.23595764 290.65388087 272.70151585 305.68697859 270 321 C269.83371094 322.00659668 269.66742188 323.01319336 269.49609375 324.05029297 C263.80798887 358.18418901 251.06241168 433.6519621 222.0390625 456.546875 C212.18588066 463.53053371 203.24419791 465.68677793 191.23291016 465.57641602 C189.13412156 465.56256022 187.03982006 465.5967064 184.94140625 465.63476562 C172.17061886 465.70795658 161.26154944 462.09583584 152 453 C142.42795233 442.07887179 141.02274001 426.60233006 138 413 C102.36 413 66.72 413 30 413 C29.67 415.64 29.34 418.28 29 421 C28.35481978 424.20083654 27.52098978 427.34337913 26.6875 430.5 C26.38682617 431.70462891 26.38682617 431.70462891 26.08007812 432.93359375 C23.18002503 444.01305357 17.88270536 453.72529592 7.88671875 459.93359375 C-0.9920875 464.45430463 -7.63915447 465.23700168 -17.56982422 465.29516602 C-18.92930555 465.3066323 -20.28874378 465.32699887 -21.64794922 465.35668945 C-30.29156251 465.54514338 -37.29455811 465.09116296 -45 461 C-46.1432373 460.40590332 -46.1432373 460.40590332 -47.30957031 459.79980469 C-59.0371875 452.89975155 -63.73526849 440.86852057 -67.9375 428.5625 C-68.4734089 427.03460494 -69.01022225 425.50702687 -69.54785156 423.97973633 C-71.40477256 418.66639319 -73.20712537 413.335247 -75 408 C-75.36015198 406.92882935 -75.72030396 405.85765869 -76.09136963 404.75402832 C-78.83670729 396.57364722 -81.55148347 388.383435 -84.25 380.1875 C-84.8200325 378.46093674 -84.8200325 378.46093674 -85.40158081 376.69949341 C-86.48822588 373.39954671 -87.56600291 370.09684774 -88.640625 366.79296875 C-88.96605789 365.80583893 -89.29149078 364.81870911 -89.62678528 363.80166626 C-91.22438328 358.85269055 -92.46852296 354.17742739 -93 349 C-93.75917725 349.01571045 -94.51835449 349.0314209 -95.30053711 349.04760742 C-124.17920467 349.56544386 -124.17920467 349.56544386 -138 346 C-139.07580322 345.72663818 -139.07580322 345.72663818 -140.17333984 345.44775391 C-149.19258442 343.09925798 -157.63377059 340.15642576 -166 336 C-165.88073151 336.60154907 -165.76146301 337.20309814 -165.63858032 337.82287598 C-164.00918395 346.36927878 -162.90516036 354.96422499 -161.8359375 363.59375 C-161.68974913 364.76766045 -161.68974913 364.76766045 -161.54060745 365.96528625 C-161.02470167 370.11052567 -160.51270076 374.25622573 -160.00390625 378.40234375 C-159.58787244 381.78734981 -159.16485893 385.17136503 -158.73535156 388.5546875 C-152.31885496 439.14531107 -152.31885496 439.14531107 -159 449 C-159.4125 449.6909375 -159.825 450.381875 -160.25 451.09375 C-165.1001499 458.47920552 -172.580615 462.69618818 -181 465 C-192.23835293 466.07388706 -201.36492553 465.00756972 -210.25 457.8125 C-223.18202159 445.45523493 -223.78581541 428.12260811 -226.3125 411.3125 C-226.46207153 410.32312439 -226.61164307 409.33374878 -226.76574707 408.31439209 C-230.24299625 385.2067247 -233.20592822 362.04335877 -235.6986084 338.80908203 C-235.89089917 337.01686041 -236.08511679 335.22484375 -236.28186035 333.43310547 C-238.82874787 310.17332501 -239.29983126 286.93501329 -239.36746979 263.55635834 C-239.37484854 261.35763215 -239.3867057 259.15896758 -239.39935303 256.96026611 C-239.68488092 199.16899906 -231.14245045 139.58875832 -190 96 C-189.37738281 95.32453125 -188.75476563 94.6490625 -188.11328125 93.953125 C-174.355219 79.5316761 -156.45328608 69.34377713 -138.6484375 60.75390625 C-138.05611328 60.46547852 -137.46378906 60.17705078 -136.85351562 59.87988281 C-135.55083552 59.26148725 -134.23556339 58.66926854 -132.91210938 58.09667969 C-128.03430859 55.89285403 -125.61808469 53.80021122 -122.75 49.125 C-106.64789529 24.18329193 -82.60848091 3.97702289 -53.27001953 -2.91748047 C-36.02213371 -6.24696523 -16.67140604 -5.65668361 0 0 Z " fill="#E5E1E5" transform="translate(239,26)"/>
<path d="M0 0 C22.98384589 -1.34031067 47.92901956 6.73810138 65.4765625 21.69140625 C101.59848562 54.73793344 120.9526014 105.69131371 125 154 C125.14893156 157.35453668 125.18636064 160.70494205 125.203125 164.0625 C125.21013931 165.00333435 125.21715363 165.9441687 125.22438049 166.91351318 C125.24182637 169.94239117 125.24823531 172.97107358 125.25 176 C125.25067474 177.03499634 125.25134949 178.06999268 125.25204468 179.13635254 C125.23595764 194.65388087 124.70151585 209.68697859 122 225 C121.83371094 226.00659668 121.66742188 227.01319336 121.49609375 228.05029297 C115.80798887 262.18418901 103.06241168 337.6519621 74.0390625 360.546875 C64.18588066 367.53053371 55.24419791 369.68677793 43.23291016 369.57641602 C41.13412156 369.56256022 39.03982006 369.5967064 36.94140625 369.63476562 C24.17061886 369.70795658 13.26154944 366.09583584 4 357 C-5.57204767 346.07887179 -6.97725999 330.60233006 -10 317 C-45.64 317 -81.28 317 -118 317 C-118.33 319.64 -118.66 322.28 -119 325 C-119.64518022 328.20083654 -120.47901022 331.34337913 -121.3125 334.5 C-121.51294922 335.30308594 -121.71339844 336.10617187 -121.91992188 336.93359375 C-124.81997497 348.01305357 -130.11729464 357.72529592 -140.11328125 363.93359375 C-148.9920875 368.45430463 -155.63915447 369.23700168 -165.56982422 369.29516602 C-166.92930555 369.3066323 -168.28874378 369.32699887 -169.64794922 369.35668945 C-178.29156251 369.54514338 -185.29455811 369.09116296 -193 365 C-193.7621582 364.60393555 -194.52431641 364.20787109 -195.30957031 363.79980469 C-207.03692152 356.89990805 -211.73579037 344.86853576 -215.9375 332.5625 C-216.47342427 331.03387805 -217.01023715 329.50556741 -217.54785156 327.97753906 C-219.40388002 322.66464003 -221.20560316 317.33398102 -223 312 C-223.36015198 310.93118591 -223.72030396 309.86237183 -224.09136963 308.76116943 C-226.83765332 300.59955439 -229.5517092 292.42759446 -232.25 284.25 C-232.63002167 283.10322784 -233.01004333 281.95645569 -233.40158081 280.77493286 C-234.48960673 277.48282916 -235.56686194 274.1874046 -236.640625 270.890625 C-236.96605789 269.90865646 -237.29149078 268.92668793 -237.62678528 267.91496277 C-239.35032113 262.57629748 -240.51133242 257.59252898 -241 252 C-240.30664551 251.87995605 -239.61329102 251.75991211 -238.89892578 251.63623047 C-212.76379617 247.04346426 -187.15465194 240.33237329 -165.7043457 223.87207031 C-164.03125 222.640625 -164.03125 222.640625 -161 221 C-158.515625 221.5234375 -158.515625 221.5234375 -156 223 C-154.95328125 223.52335938 -153.9065625 224.04671875 -152.828125 224.5859375 C-151.96960938 225.01990845 -151.96960938 225.01990845 -151.09375 225.46264648 C-131.77475254 235.02237814 -109.59331679 237.44347492 -88.76171875 231.3203125 C-52.70228602 218.6639384 -26.62294553 192.15015956 -10.1015625 158.140625 C-1.71434456 140.2563152 2.34793968 121.48269815 5 102 C5.17789063 100.74775635 5.17789063 100.74775635 5.359375 99.47021484 C9.50670095 69.18609515 8.54295033 36.83265029 0.76953125 7.265625 C0 4 0 4 0 0 Z " fill="#D7D0D6" transform="translate(387,122)"/>
<path d="M0 0 C22.98384589 -1.34031067 47.92901956 6.73810138 65.4765625 21.69140625 C101.59848562 54.73793344 120.9526014 105.69131371 125 154 C125.14893156 157.35453668 125.18636064 160.70494205 125.203125 164.0625 C125.21013931 165.00333435 125.21715363 165.9441687 125.22438049 166.91351318 C125.24182637 169.94239117 125.24823531 172.97107358 125.25 176 C125.25067474 177.03499634 125.25134949 178.06999268 125.25204468 179.13635254 C125.23595764 194.65388087 124.70151585 209.68697859 122 225 C121.83371094 226.00659668 121.66742188 227.01319336 121.49609375 228.05029297 C115.80798887 262.18418901 103.06241168 337.6519621 74.0390625 360.546875 C63.46869216 368.03885679 54.11963671 369.57126789 41.375 369.25 C39.9752862 369.22988824 38.57554424 369.21164579 37.17578125 369.1953125 C33.78312085 369.14851718 30.39193616 369.08296363 27 369 C29.65767637 367.22821575 31.66019788 366.35253376 34.625 365.3125 C45.36510114 361.05403424 51.75143909 353.9871367 56.56835938 343.62670898 C58.25075572 339.72055646 59.81737068 335.7696846 61.375 331.8125 C61.95062989 330.36682473 62.52656117 328.92126943 63.1027832 327.47583008 C64.50543792 323.94510174 65.89198708 320.40833279 67.27093506 316.86828613 C67.91411871 315.22007753 68.5632898 313.57420811 69.21337891 311.92871094 C99.08797269 235.93702577 107.33532688 152.87671628 74.92578125 76.42626953 C61.39510549 45.77501046 42.13377103 22.9405763 12 8 C12.37511719 8.92296875 12.75023437 9.8459375 13.13671875 10.796875 C28.71070195 50.06194208 29.18368695 93.63993007 23 135 C22.79117188 136.44028564 22.79117188 136.44028564 22.578125 137.90966797 C17.09106746 174.39479018 -2.36838495 209.50881005 -31 233 C-31.68835938 233.59941406 -32.37671875 234.19882812 -33.0859375 234.81640625 C-56.77194535 254.82421152 -86.02320619 265.67107579 -117 264 C-128.54924329 262.93770568 -140.89667991 259.64567504 -150.67578125 253.25 C-152.83802052 251.83705177 -152.83802052 251.83705177 -154.890625 252.05859375 C-158.0137011 253.45241105 -160.861102 255.24727531 -163.75 257.0625 C-179.90429407 266.93676772 -196.44586246 274.34061956 -215 278.375 C-216.14722534 278.62685059 -216.14722534 278.62685059 -217.31762695 278.88378906 C-222.62280876 279.95232595 -227.59008978 280.13954134 -233 280 C-235.31618851 274.85819736 -237.11464265 269.72483993 -238.6875 264.3125 C-238.91244141 263.56677734 -239.13738281 262.82105469 -239.36914062 262.05273438 C-240.40191688 258.53376119 -241 255.69585688 -241 252 C-240.30664551 251.87995605 -239.61329102 251.75991211 -238.89892578 251.63623047 C-212.76379617 247.04346426 -187.15465194 240.33237329 -165.7043457 223.87207031 C-164.03125 222.640625 -164.03125 222.640625 -161 221 C-158.515625 221.5234375 -158.515625 221.5234375 -156 223 C-154.95328125 223.52335938 -153.9065625 224.04671875 -152.828125 224.5859375 C-151.96960938 225.01990845 -151.96960938 225.01990845 -151.09375 225.46264648 C-131.77475254 235.02237814 -109.59331679 237.44347492 -88.76171875 231.3203125 C-52.70228602 218.6639384 -26.62294553 192.15015956 -10.1015625 158.140625 C-1.71434456 140.2563152 2.34793968 121.48269815 5 102 C5.17789063 100.74775635 5.17789063 100.74775635 5.359375 99.47021484 C9.50670095 69.18609515 8.54295033 36.83265029 0.76953125 7.265625 C0 4 0 4 0 0 Z " fill="#CAC0C9" transform="translate(387,122)"/>
<path d="M0 0 C28.07640893 26.59180877 38.26491576 67.37445043 39.36979675 104.83291626 C39.81199597 123.89710543 38.95513118 142.62146302 36.13671875 161.50390625 C36.00281738 162.45861816 35.86891602 163.41333008 35.73095703 164.39697266 C30.76467766 199.08869147 16.30724462 229.18459113 -7.86328125 254.50390625 C-8.45882812 255.16261719 -9.054375 255.82132812 -9.66796875 256.5 C-24.63190014 272.45938605 -47.83521098 286.14853543 -69.86328125 288.50390625 C-73.82286327 288.61355621 -77.77760064 288.59811121 -81.73828125 288.56640625 C-83.34316406 288.55963867 -83.34316406 288.55963867 -84.98046875 288.55273438 C-87.60813111 288.54100374 -90.23567663 288.52458853 -92.86328125 288.50390625 C-91.86328125 286.50390625 -91.86328125 286.50390625 -88.42578125 285.3125 C-86.90530397 284.8542856 -85.38444158 284.39734796 -83.86328125 283.94140625 C-49.71248226 273.04518825 -25.11295034 246.9682722 -8.94238281 215.72460938 C11.3102201 175.91106128 15.51383713 123.32013346 8.13671875 79.50390625 C8.01312988 78.75399414 7.88954102 78.00408203 7.76220703 77.23144531 C2.05717242 44.0246863 -12.04544674 12.04248117 -40.05078125 -8.18359375 C-51.69881363 -15.91201476 -65.02155092 -22.96377008 -78.86328125 -25.49609375 C-78.53328125 -26.15609375 -78.20328125 -26.81609375 -77.86328125 -27.49609375 C-48.69311035 -32.71534497 -21.36258885 -18.62304813 0 0 Z " fill="#D8D1D7" transform="translate(355.86328125,68.49609375)"/>
<path d="M0 0 C1.89903076 0.01135986 1.89903076 0.01135986 3.83642578 0.02294922 C13.6529947 0.1950375 22.40309127 1.28725805 31.6875 4.4375 C32.64003662 4.75895996 32.64003662 4.75895996 33.61181641 5.08691406 C57.23672259 13.26133388 57.23672259 13.26133388 62.6875 21.4375 C62.10484375 21.66824219 61.5221875 21.89898437 60.921875 22.13671875 C59.16183028 22.83686233 57.40425154 23.54321961 55.6484375 24.25390625 C53.74617596 25.01430895 51.83511325 25.75324326 49.9140625 26.46484375 C34.4338203 32.42367671 20.27171935 42.57246403 8.13671875 53.796875 C5.6875 55.4375 5.6875 55.4375 3.03125 55.4609375 C2.0928125 55.24695313 1.154375 55.03296875 0.1875 54.8125 C-11.92665156 52.1923043 -23.69271107 50.99780788 -36.0625 51 C-36.82374176 50.99860016 -37.58498352 50.99720032 -38.36929321 50.99575806 C-58.14005565 51.02544815 -76.68060942 54.9121732 -95.3125 61.4375 C-87.29685064 38.49909916 -62.30798907 18.92330171 -41.3125 8.4375 C-27.99354205 2.35745126 -14.59288388 -0.12355217 0 0 Z " fill="#D8D0D7" transform="translate(207.3125,21.5625)"/>
<path d="M0 0 C1.81074964 8.18804667 2.92002448 16.42868787 3.9453125 24.74609375 C4.03173885 25.44135729 4.11816521 26.13662083 4.20721054 26.85295296 C4.66524186 30.53777974 5.11895707 34.22310626 5.56884766 37.90893555 C5.93612543 40.9127951 6.31059336 43.91561335 6.69189453 46.91772461 C12.68412223 94.14091971 12.68412223 94.14091971 6 104 C5.5875 104.6909375 5.175 105.381875 4.75 106.09375 C-0.08914176 113.46244314 -7.58470227 117.72953601 -16 120 C-19.65625 120.265625 -19.65625 120.265625 -23.5 120.25 C-24.7684375 120.25515625 -26.036875 120.2603125 -27.34375 120.265625 C-30.90390317 120.00698139 -33.68745385 119.28821239 -37 118 C-37 117.34 -37 116.68 -37 116 C-35.2421875 114.7734375 -35.2421875 114.7734375 -32.875 113.375 C-25.7994182 108.76919675 -21.56961769 103.12304828 -19.52027893 94.88018799 C-17.77618141 85.22511945 -19.26033882 75.20289619 -20.56640625 65.578125 C-20.89006071 63.06381325 -21.21362579 60.54948999 -21.53710938 58.03515625 C-22.049812 54.12896774 -22.56604968 50.22327203 -23.0847168 46.31787109 C-23.58747413 42.50988362 -24.07744031 38.70040411 -24.56640625 34.890625 C-24.80382286 33.15126678 -24.80382286 33.15126678 -25.04603577 31.37677002 C-26.17048586 22.56739988 -26.89234896 14.36768318 -21.5625 6.796875 C-15.38987757 -0.30164079 -9.050757 -0.67880678 0 0 Z " fill="#D8D1D7" transform="translate(74,371)"/>
<path d="M0 0 C1.35264431 0.67366991 2.70019166 1.3576525 4.04296875 2.05078125 C4.74421875 2.4065625 5.44546875 2.76234375 6.16796875 3.12890625 C11.44192727 5.84874807 16.44032287 8.85050761 21.23046875 12.36328125 C19.50535297 15.81351282 15.22576467 16.19129922 11.73046875 17.36328125 C-3.63535565 22.81170369 -16.08443497 31.08765616 -28.4765625 41.578125 C-29.34607544 42.30950684 -29.34607544 42.30950684 -30.2331543 43.05566406 C-31.47327676 44.11113775 -32.69146737 45.19234834 -33.90234375 46.28125 C-36.51617804 47.7959615 -37.90466585 47.37008673 -40.83203125 46.73828125 C-46.54748461 45.60229052 -52.26159845 44.62808017 -58.01953125 43.73828125 C-59.69146807 43.47565366 -61.36334798 43.2126634 -63.03515625 42.94921875 C-64.2675 42.75585938 -65.49984375 42.5625 -66.76953125 42.36328125 C-51.55575809 24.30559608 -34.69161655 10.31545266 -13.76953125 -0.63671875 C-13.08375 -1.06726563 -12.39796875 -1.4978125 -11.69140625 -1.94140625 C-7.56454726 -3.43445686 -3.78988308 -1.74910324 0 0 Z " fill="#CAC0C9" transform="translate(248.76953125,29.63671875)"/>
<path d="M0 0 C4.26083815 1.97261025 7.12578521 4.51747302 9.30859375 8.74609375 C11.14859637 14.74429438 11.05983331 22.11043684 8.8125 28 C6.22750135 32.27861845 3.81727242 35.39424253 -1 37 C-4.91881746 37.59997399 -8.4525074 37.80339175 -12.0390625 35.94140625 C-17.4477408 31.69501839 -19.47714563 27.02421622 -20.34765625 20.32421875 C-20.79753298 11.98419638 -18.14843753 7.59821432 -12.8125 1.5 C-8.56225472 -0.76679748 -4.71082101 -0.73346651 0 0 Z " fill="#454145" transform="translate(147,251)"/>
</svg>
